<svg width="512" height="512" version="1.1" xmlns="http://www.w3.org/2000/svg" desc="Created with imagetracer.js version 1.2.6" ><path fill="rgb(249,109,98)" stroke="rgb(249,109,98)" stroke-width="1" opacity="0.6313725490196078" d="M 346.5 0 L 354 0.5 L 346.5 1 L 346.5 0 Z " /><path fill="rgb(249,109,98)" stroke="rgb(249,109,98)" stroke-width="1" opacity="0.6313725490196078" d="M 355.5 1 L 359 1.5 L 355.5 2 L 355.5 1 Z " /><path fill="rgb(249,109,98)" stroke="rgb(249,109,98)" stroke-width="1" opacity="0.6313725490196078" d="M 360.5 2 L 363 2.5 L 360.5 3 L 360.5 2 Z " /><path fill="rgb(249,109,98)" stroke="rgb(249,109,98)" stroke-width="1" opacity="0.6313725490196078" d="M 364.5 3 L 372 5.5 L 370.5 6 L 364.5 4 L 364.5 3 Z " /><path fill="rgb(249,109,98)" stroke="rgb(249,109,98)" stroke-width="1" opacity="0.6313725490196078" d="M 373.5 6 Q 395.8 14.8 409 32.5 L 421 53.5 L 425 66.5 L 425 70.5 L 424 70.5 Q 417.7 36.3 394.5 19 Q 385.6 11.4 373.5 7 L 373.5 6 Z " /><path fill="rgb(249,109,98)" stroke="rgb(249,109,98)" stroke-width="1" opacity="0.6313725490196078" d="M 425.5 72 L 426 78.5 L 425 78.5 L 425.5 72 Z " /><path fill="rgb(249,109,98)" stroke="rgb(249,109,98)" stroke-width="1" opacity="0.6313725490196078" d="M 426.5 83 L 427 87.5 L 426 87.5 L 426.5 83 Z " /><path fill="rgb(249,109,98)" stroke="rgb(249,109,98)" stroke-width="1" opacity="0.6313725490196078" d="M 425.5 92 L 426 98.5 L 425 98.5 L 425.5 92 Z " /><path fill="rgb(249,109,98)" stroke="rgb(249,109,98)" stroke-width="1" opacity="0.6313725490196078" d="M 424.5 100 L 425 103.5 L 424 103.5 L 424.5 100 Z " /><path fill="rgb(249,109,98)" stroke="rgb(249,109,98)" stroke-width="1" opacity="0.6313725490196078" d="M 423.5 105 L 424 107.5 L 423 107.5 L 423.5 105 Z " /><path fill="rgb(249,109,98)" stroke="rgb(249,109,98)" stroke-width="1" opacity="0.6313725490196078" d="M 422.5 109 L 423 111.5 Q 414.4 136.9 395.5 152 L 377.5 163 L 377.5 162 Q 394.1 154.6 405 141.5 Q 417 128.5 422.5 109 Z " /><path fill="rgb(249,109,98)" stroke="rgb(249,109,98)" stroke-width="1" opacity="0.6313725490196078" d="M 374.5 163 L 376 163.5 L 363.5 168 L 363.5 167 L 374.5 163 Z " /><path fill="rgb(249,109,98)" stroke="rgb(249,109,98)" stroke-width="1" opacity="0.6313725490196078" d="M 359.5 168 L 362 168.5 L 359.5 169 L 359.5 168 Z " /><path fill="rgb(249,109,98)" stroke="rgb(249,109,98)" stroke-width="1" opacity="0.6313725490196078" d="M 353.5 169 L 358 169.5 L 353.5 170 L 353.5 169 Z " /><path fill="rgb(249,109,98)" stroke="rgb(249,109,98)" stroke-width="1" opacity="0.6313725490196078" d="M 164.5 170 L 170 170.5 L 164.5 171 L 164.5 170 Z " /><path fill="rgb(249,109,98)" stroke="rgb(249,109,98)" stroke-width="1" opacity="0.6313725490196078" d="M 256.5 170 L 351 170.5 L 256.5 171 L 256.5 170 Z " /><path fill="rgb(255,115,97)" stroke="rgb(255,115,97)" stroke-width="1" opacity="0.996078431372549" d="M 257 0 L 345.5 0 L 346.5 1 L 359.5 2 Q 390.1 9.9 407 31.5 Q 417.6 44.4 423 62.5 L 426 79.5 L 426 91.5 L 423 108.5 L 415 127.5 Q 407.5 140.5 396.5 150 Q 379.9 165.4 352.5 170 L 257 170 L 257 0 Z " /><path fill="rgb(255,115,97)" stroke="rgb(255,115,97)" stroke-width="1" opacity="0.996078431372549" d="M 170.5 170 L 256 170.5 L 170.5 171 L 170.5 170 Z " /><path fill="rgb(0,0,0)" stroke="rgb(0,0,0)" stroke-width="1" opacity="0" d="M 0 0 L 157 0.5 Q 123.9 6.4 106 27.5 Q 95.4 39.4 89 55.5 L 85 70.5 L 84 91.5 L 87 108.5 L 96 129.5 Q 103.9 142.6 115.5 152 Q 131.8 166.8 159 170.5 Q 124.5 177 106 199.5 Q 96.7 210.2 91 224.5 L 86 242.5 L 85 258.5 L 86 259.5 L 87 274.5 L 93 292.5 Q 101.1 309.4 114.5 321 Q 131.7 337.3 161 341.5 L 146.5 344 L 131.5 350 Q 115.8 358.4 105 371.5 Q 95.6 382.6 90 397.5 L 86 413.5 L 85 428.5 L 86 429.5 L 87 445.5 L 91 458.5 Q 100 480.5 117.5 494 Q 133 507.5 158 511.5 L 0 512 L 0 0 Z " /><path fill="rgb(0,0,0)" stroke="rgb(0,0,0)" stroke-width="1" opacity="0" d="M 354.5 0 L 511.5 0 L 512 0.5 L 512 512 L 184 511.5 Q 219.1 505.6 237 482.5 Q 245.6 472.6 251 459.5 L 257 436.5 L 257.5 272 Q 264.6 305.4 287.5 323 Q 300.4 333.6 318.5 339 L 335.5 342 L 348.5 342 L 365.5 339 L 386.5 330 Q 398.8 322.3 408 311.5 Q 419.3 298.3 425 279.5 L 428 262.5 L 428 249.5 L 425 232.5 L 416 211.5 Q 408.3 199.2 397.5 190 Q 380.5 174 351 170.5 L 365.5 168 L 380.5 162 Q 396.1 153.7 407 140.5 Q 416.4 129.4 422 114.5 L 426 98.5 L 427 83.5 L 426 82.5 L 426 72.5 L 424 62.5 L 415 41.5 Q 406.6 26.9 393.5 17 L 374.5 6 Q 366.1 1.9 354.5 1 L 354.5 0 Z " /><path fill="rgb(0,0,0)" stroke="rgb(0,0,0)" stroke-width="1" opacity="0" d="M 257 171 L 327 171.5 Q 292.7 178.2 275 201.5 Q 261.9 216.3 257.5 240 L 257 171 Z " /><path fill="rgb(254,77,18)" stroke="rgb(254,77,18)" stroke-width="1" opacity="0.9921568627450981" d="M 157.5 0 L 257 0 L 257 170 L 164.5 170 L 160.5 171 L 145.5 168 L 128.5 161 Q 113.6 152.4 103 139.5 Q 92.4 126.6 87 108.5 L 85 99.5 L 85 91.5 L 84 90.5 L 84 79.5 L 89 55.5 Q 95.8 39 106 27 Q 108.7 28.1 108 25.5 Q 125.9 5.9 157.5 0 Z " /><path fill="rgb(181,88,254)" stroke="rgb(181,88,254)" stroke-width="1" opacity="0.4235294117647059" d="M 156.5 171 L 160 171.5 L 156.5 172 L 156.5 171 Z " /><path fill="rgb(181,88,254)" stroke="rgb(181,88,254)" stroke-width="1" opacity="0.4235294117647059" d="M 256.5 171 L 257 247.5 L 256 247.5 L 256.5 171 Z " /><path fill="rgb(181,88,254)" stroke="rgb(181,88,254)" stroke-width="1" opacity="0.4235294117647059" d="M 151.5 172 L 154 172.5 L 151.5 173 L 151.5 172 Z " /><path fill="rgb(181,88,254)" stroke="rgb(181,88,254)" stroke-width="1" opacity="0.4235294117647059" d="M 147.5 173 L 150 173.5 L 147.5 174 L 147.5 173 Z " /><path fill="rgb(181,88,254)" stroke="rgb(181,88,254)" stroke-width="1" opacity="0.4235294117647059" d="M 141.5 175 L 143 175.5 L 139.5 177 L 139.5 176 L 141.5 175 Z " /><path fill="rgb(181,88,254)" stroke="rgb(181,88,254)" stroke-width="1" opacity="0.4235294117647059" d="M 136.5 177 L 138 177.5 L 127.5 183 L 128.5 181 L 136.5 177 Z " /><path fill="rgb(181,88,254)" stroke="rgb(181,88,254)" stroke-width="1" opacity="0.4235294117647059" d="M 125.5 183 L 124.5 185 L 125.5 183 Z " /><path fill="rgb(181,88,254)" stroke="rgb(181,88,254)" stroke-width="1" opacity="0.4235294117647059" d="M 122.5 185 L 120.5 188 L 107 199.5 L 100.5 208 L 102 205.5 L 114.5 191 L 122.5 185 Z " /><path fill="rgb(181,88,254)" stroke="rgb(181,88,254)" stroke-width="1" opacity="0.4235294117647059" d="M 99.5 209 L 99 210.5 L 97.5 213 L 98 211.5 L 99.5 209 Z " /><path fill="rgb(181,88,254)" stroke="rgb(181,88,254)" stroke-width="1" opacity="0.4235294117647059" d="M 96.5 214 L 96 215.5 L 93.5 221 L 93 219.5 L 96.5 214 Z " /><path fill="rgb(181,88,254)" stroke="rgb(181,88,254)" stroke-width="1" opacity="0.4235294117647059" d="M 88.5 233 L 89 235.5 L 88 235.5 L 88.5 233 Z " /><path fill="rgb(181,88,254)" stroke="rgb(181,88,254)" stroke-width="1" opacity="0.4235294117647059" d="M 87.5 237 L 88 239.5 L 87 239.5 L 87.5 237 Z " /><path fill="rgb(181,88,254)" stroke="rgb(181,88,254)" stroke-width="1" opacity="0.4235294117647059" d="M 86.5 242 L 87 246.5 L 86 246.5 L 86.5 242 Z " /><path fill="rgb(181,88,254)" stroke="rgb(181,88,254)" stroke-width="1" opacity="0.4235294117647059" d="M 85.5 253 L 86 258.5 L 85 258.5 L 85.5 253 Z " /><path fill="rgb(181,88,254)" stroke="rgb(181,88,254)" stroke-width="1" opacity="0.4235294117647059" d="M 256.5 264 L 257 340.5 L 256 340.5 L 256.5 264 Z " /><path fill="rgb(181,88,254)" stroke="rgb(181,88,254)" stroke-width="1" opacity="0.4235294117647059" d="M 86.5 265 L 87 269.5 L 86 269.5 L 86.5 265 Z " /><path fill="rgb(181,88,254)" stroke="rgb(181,88,254)" stroke-width="1" opacity="0.4235294117647059" d="M 87.5 272 L 88 274.5 L 87 274.5 L 87.5 272 Z " /><path fill="rgb(181,88,254)" stroke="rgb(181,88,254)" stroke-width="1" opacity="0.4235294117647059" d="M 88.5 276 L 89 278.5 L 88 278.5 L 88.5 276 Z " /><path fill="rgb(181,88,254)" stroke="rgb(181,88,254)" stroke-width="1" opacity="0.4235294117647059" d="M 93.5 291 L 97 297.5 L 95 296.5 L 93.5 291 Z " /><path fill="rgb(181,88,254)" stroke="rgb(181,88,254)" stroke-width="1" opacity="0.4235294117647059" d="M 97.5 299 Q 104.3 311.2 114.5 320 L 123 326.5 L 120.5 325 L 106 312.5 L 97.5 299 Z " /><path fill="rgb(181,88,254)" stroke="rgb(181,88,254)" stroke-width="1" opacity="0.4235294117647059" d="M 124.5 327 L 138 334.5 L 136.5 335 L 125.5 329 L 124.5 327 Z " /><path fill="rgb(181,88,254)" stroke="rgb(181,88,254)" stroke-width="1" opacity="0.4235294117647059" d="M 139.5 335 L 143 336.5 L 141.5 337 L 139.5 335 Z " /><path fill="rgb(181,88,254)" stroke="rgb(181,88,254)" stroke-width="1" opacity="0.4235294117647059" d="M 147.5 338 L 150 338.5 L 147.5 339 L 147.5 338 Z " /><path fill="rgb(181,88,254)" stroke="rgb(181,88,254)" stroke-width="1" opacity="0.4235294117647059" d="M 151.5 339 L 154 339.5 L 151.5 340 L 151.5 339 Z " /><path fill="rgb(181,88,254)" stroke="rgb(181,88,254)" stroke-width="1" opacity="0.4235294117647059" d="M 156.5 340 L 161 340.5 L 156.5 341 L 156.5 340 Z " /><path fill="rgb(167,96,255)" stroke="rgb(167,96,255)" stroke-width="1" opacity="0.7725490196078432" d="M 114.5 192 L 107.5 200 L 114.5 192 Z " /><path fill="rgb(167,96,255)" stroke="rgb(167,96,255)" stroke-width="1" opacity="0.7725490196078432" d="M 86.5 247 L 87 249.5 L 86 249.5 L 86.5 247 Z " /><path fill="rgb(167,96,255)" stroke="rgb(167,96,255)" stroke-width="1" opacity="0.7725490196078432" d="M 256.5 248 L 257 263.5 L 256 263.5 L 256.5 248 Z " /><path fill="rgb(167,96,255)" stroke="rgb(167,96,255)" stroke-width="1" opacity="0.7725490196078432" d="M 86.5 262 L 87 264.5 L 86 264.5 L 86.5 262 Z " /><path fill="rgb(167,96,255)" stroke="rgb(167,96,255)" stroke-width="1" opacity="0.7725490196078432" d="M 107.5 312 L 114.5 320 L 107.5 312 Z " /><path fill="rgb(0,188,255)" stroke="rgb(0,188,255)" stroke-width="1" opacity="0.8862745098039215" d="M 330.5 171 L 334 171.5 L 330.5 172 L 330.5 171 Z " /><path fill="rgb(0,188,255)" stroke="rgb(0,188,255)" stroke-width="1" opacity="0.8862745098039215" d="M 350.5 171 L 354 171.5 L 350.5 172 L 350.5 171 Z " /><path fill="rgb(0,188,255)" stroke="rgb(0,188,255)" stroke-width="1" opacity="0.8862745098039215" d="M 324.5 172 L 327 172.5 L 324.5 173 L 324.5 172 Z " /><path fill="rgb(0,188,255)" stroke="rgb(0,188,255)" stroke-width="1" opacity="0.8862745098039215" d="M 357.5 172 L 360 172.5 L 357.5 173 L 357.5 172 Z " /><path fill="rgb(0,188,255)" stroke="rgb(0,188,255)" stroke-width="1" opacity="0.8862745098039215" d="M 300.5 181 L 299.5 183 L 300.5 181 Z " /><path fill="rgb(0,188,255)" stroke="rgb(0,188,255)" stroke-width="1" opacity="0.8862745098039215" d="M 383.5 181 L 384.5 183 L 383.5 181 Z " /><path fill="rgb(0,188,255)" stroke="rgb(0,188,255)" stroke-width="1" opacity="0.8862745098039215" d="M 295.5 184 L 294.5 186 L 295.5 184 Z " /><path fill="rgb(0,188,255)" stroke="rgb(0,188,255)" stroke-width="1" opacity="0.8862745098039215" d="M 388.5 184 L 389.5 186 L 388.5 184 Z " /><path fill="rgb(0,188,255)" stroke="rgb(0,188,255)" stroke-width="1" opacity="0.8862745098039215" d="M 292.5 186 L 290.5 189 L 292.5 186 Z " /><path fill="rgb(0,188,255)" stroke="rgb(0,188,255)" stroke-width="1" opacity="0.8862745098039215" d="M 392.5 187 L 393.5 189 L 392.5 187 Z " /><path fill="rgb(0,188,255)" stroke="rgb(0,188,255)" stroke-width="1" opacity="0.8862745098039215" d="M 287.5 190 L 284.5 194 L 287.5 190 Z " /><path fill="rgb(0,188,255)" stroke="rgb(0,188,255)" stroke-width="1" opacity="0.8862745098039215" d="M 396.5 190 L 407.5 202 L 396.5 190 Z " /><path fill="rgb(0,188,255)" stroke="rgb(0,188,255)" stroke-width="1" opacity="0.8862745098039215" d="M 279.5 198 L 275.5 203 L 279.5 198 Z " /><path fill="rgb(0,188,255)" stroke="rgb(0,188,255)" stroke-width="1" opacity="0.8862745098039215" d="M 409.5 204 L 410.5 206 L 409.5 204 Z " /><path fill="rgb(0,188,255)" stroke="rgb(0,188,255)" stroke-width="1" opacity="0.8862745098039215" d="M 273.5 205 L 272.5 207 L 273.5 205 Z " /><path fill="rgb(0,188,255)" stroke="rgb(0,188,255)" stroke-width="1" opacity="0.8862745098039215" d="M 271.5 208 L 270.5 210 L 271.5 208 Z " /><path fill="rgb(0,188,255)" stroke="rgb(0,188,255)" stroke-width="1" opacity="0.8862745098039215" d="M 269.5 211 L 268.5 213 L 269.5 211 Z " /><path fill="rgb(0,188,255)" stroke="rgb(0,188,255)" stroke-width="1" opacity="0.8862745098039215" d="M 415.5 213 L 416.5 215 L 415.5 213 Z " /><path fill="rgb(0,188,255)" stroke="rgb(0,188,255)" stroke-width="1" opacity="0.8862745098039215" d="M 257.5 243 L 258 246.5 L 257 246.5 L 257.5 243 Z " /><path fill="rgb(0,188,255)" stroke="rgb(0,188,255)" stroke-width="1" opacity="0.8862745098039215" d="M 426.5 245 L 427 248.5 L 426 248.5 L 426.5 245 Z " /><path fill="rgb(0,188,255)" stroke="rgb(0,188,255)" stroke-width="1" opacity="0.8862745098039215" d="M 426.5 263 L 427 266.5 L 426 266.5 L 426.5 263 Z " /><path fill="rgb(0,188,255)" stroke="rgb(0,188,255)" stroke-width="1" opacity="0.8862745098039215" d="M 257.5 265 L 258 268.5 L 257 268.5 L 257.5 265 Z " /><path fill="rgb(0,188,255)" stroke="rgb(0,188,255)" stroke-width="1" opacity="0.8862745098039215" d="M 416.5 297 L 415.5 299 L 416.5 297 Z " /><path fill="rgb(0,188,255)" stroke="rgb(0,188,255)" stroke-width="1" opacity="0.8862745098039215" d="M 268.5 299 L 269.5 301 L 268.5 299 Z " /><path fill="rgb(0,188,255)" stroke="rgb(0,188,255)" stroke-width="1" opacity="0.8862745098039215" d="M 270.5 302 L 271.5 304 L 270.5 302 Z " /><path fill="rgb(0,188,255)" stroke="rgb(0,188,255)" stroke-width="1" opacity="0.8862745098039215" d="M 272.5 305 L 273.5 307 L 272.5 305 Z " /><path fill="rgb(0,188,255)" stroke="rgb(0,188,255)" stroke-width="1" opacity="0.8862745098039215" d="M 410.5 306 L 409.5 308 L 410.5 306 Z " /><path fill="rgb(0,188,255)" stroke="rgb(0,188,255)" stroke-width="1" opacity="0.8862745098039215" d="M 275.5 309 L 279.5 314 L 275.5 309 Z " /><path fill="rgb(0,188,255)" stroke="rgb(0,188,255)" stroke-width="1" opacity="0.8862745098039215" d="M 407.5 310 L 396.5 322 L 407.5 310 Z " /><path fill="rgb(0,188,255)" stroke="rgb(0,188,255)" stroke-width="1" opacity="0.8862745098039215" d="M 284.5 318 L 287.5 322 L 284.5 318 Z " /><path fill="rgb(0,188,255)" stroke="rgb(0,188,255)" stroke-width="1" opacity="0.8862745098039215" d="M 290.5 323 L 292.5 326 L 290.5 323 Z " /><path fill="rgb(0,188,255)" stroke="rgb(0,188,255)" stroke-width="1" opacity="0.8862745098039215" d="M 393.5 323 L 392.5 325 L 393.5 323 Z " /><path fill="rgb(0,188,255)" stroke="rgb(0,188,255)" stroke-width="1" opacity="0.8862745098039215" d="M 294.5 326 L 295.5 328 L 294.5 326 Z " /><path fill="rgb(0,188,255)" stroke="rgb(0,188,255)" stroke-width="1" opacity="0.8862745098039215" d="M 389.5 326 L 388.5 328 L 389.5 326 Z " /><path fill="rgb(0,188,255)" stroke="rgb(0,188,255)" stroke-width="1" opacity="0.8862745098039215" d="M 299.5 329 L 300.5 331 L 299.5 329 Z " /><path fill="rgb(0,188,255)" stroke="rgb(0,188,255)" stroke-width="1" opacity="0.8862745098039215" d="M 384.5 329 L 383.5 331 L 384.5 329 Z " /><path fill="rgb(0,188,255)" stroke="rgb(0,188,255)" stroke-width="1" opacity="0.8862745098039215" d="M 324.5 339 L 327 339.5 L 324.5 340 L 324.5 339 Z " /><path fill="rgb(0,188,255)" stroke="rgb(0,188,255)" stroke-width="1" opacity="0.8862745098039215" d="M 357.5 339 L 360 339.5 L 357.5 340 L 357.5 339 Z " /><path fill="rgb(0,188,255)" stroke="rgb(0,188,255)" stroke-width="1" opacity="0.8862745098039215" d="M 330.5 340 L 334 340.5 L 330.5 341 L 330.5 340 Z " /><path fill="rgb(0,188,255)" stroke="rgb(0,188,255)" stroke-width="1" opacity="0.8862745098039215" d="M 350.5 340 L 354 340.5 L 350.5 341 L 350.5 340 Z " /><path fill="rgb(182,89,255)" stroke="rgb(182,89,255)" stroke-width="1" opacity="0.996078431372549" d="M 162.5 171 L 256 171 L 256 341 L 162.5 341 Q 161 338.5 155.5 340 Q 121.9 332.1 104 308.5 Q 93.8 296.2 89 278.5 L 86 261.5 L 86 250.5 L 90 229.5 L 96 215.5 Q 104.8 199.8 118.5 189 L 136.5 178 L 147.5 174 L 162.5 171 Z " /><path fill="rgb(0,188,255)" stroke="rgb(0,188,255)" stroke-width="1" opacity="1" d="M 334.5 171 L 356.5 172 L 376.5 178 Q 396.3 187.3 409 203.5 Q 418.9 215.6 424 232.5 L 427 249.5 L 427 262.5 L 423 282.5 L 417 296.5 Q 408.2 312.2 394.5 323 Q 382.4 332.9 365.5 338 L 349.5 341 L 334.5 341 L 318.5 338 L 307.5 334 Q 291.5 326.5 280 314.5 Q 268.3 302.7 262 285.5 L 257 264.5 L 257 247.5 L 260 232.5 L 264 221.5 Q 271.3 205.3 283.5 194 Q 293.9 184.4 307.5 178 L 318.5 174 L 334.5 171 Z " /><path fill="rgb(0,195,212)" stroke="rgb(0,195,212)" stroke-width="1" opacity="0.24313725490196078" d="M 327.5 171 L 330 171.5 L 327.5 172 L 327.5 171 Z " /><path fill="rgb(0,195,212)" stroke="rgb(0,195,212)" stroke-width="1" opacity="0.24313725490196078" d="M 354.5 171 L 357 171.5 L 354.5 172 L 354.5 171 Z " /><path fill="rgb(0,195,212)" stroke="rgb(0,195,212)" stroke-width="1" opacity="0.24313725490196078" d="M 373.5 176 L 377 177.5 L 375.5 178 L 373.5 176 Z " /><path fill="rgb(0,195,212)" stroke="rgb(0,195,212)" stroke-width="1" opacity="0.24313725490196078" d="M 299.5 181 L 298.5 183 L 296.5 184 L 297.5 182 L 299.5 181 Z " /><path fill="rgb(0,195,212)" stroke="rgb(0,195,212)" stroke-width="1" opacity="0.24313725490196078" d="M 384.5 181 L 388 183.5 L 386.5 183 L 384.5 181 Z " /><path fill="rgb(0,195,212)" stroke="rgb(0,195,212)" stroke-width="1" opacity="0.24313725490196078" d="M 294.5 184 L 293.5 186 L 294.5 184 Z " /><path fill="rgb(0,195,212)" stroke="rgb(0,195,212)" stroke-width="1" opacity="0.24313725490196078" d="M 389.5 184 L 396 189.5 L 392.5 187 L 389.5 184 Z " /><path fill="rgb(0,195,212)" stroke="rgb(0,195,212)" stroke-width="1" opacity="0.24313725490196078" d="M 291.5 186 L 288.5 190 L 275.5 202 L 287.5 189 L 291.5 186 Z " /><path fill="rgb(0,195,212)" stroke="rgb(0,195,212)" stroke-width="1" opacity="0.24313725490196078" d="M 397.5 190 L 407.5 201 L 397.5 190 Z " /><path fill="rgb(0,195,212)" stroke="rgb(0,195,212)" stroke-width="1" opacity="0.24313725490196078" d="M 408.5 202 L 417 213.5 L 415 212.5 L 408.5 202 Z " /><path fill="rgb(0,195,212)" stroke="rgb(0,195,212)" stroke-width="1" opacity="0.24313725490196078" d="M 274.5 203 L 272.5 206 L 274.5 203 Z " /><path fill="rgb(0,195,212)" stroke="rgb(0,195,212)" stroke-width="1" opacity="0.24313725490196078" d="M 271.5 207 L 270.5 209 L 271.5 207 Z " /><path fill="rgb(0,195,212)" stroke="rgb(0,195,212)" stroke-width="1" opacity="0.24313725490196078" d="M 269.5 210 L 268.5 212 L 269.5 210 Z " /><path fill="rgb(0,195,212)" stroke="rgb(0,195,212)" stroke-width="1" opacity="0.24313725490196078" d="M 420.5 221 L 422 224.5 L 421 224.5 L 420.5 221 Z " /><path fill="rgb(0,195,212)" stroke="rgb(0,195,212)" stroke-width="1" opacity="0.24313725490196078" d="M 258.5 235 L 259 237.5 L 258 237.5 L 258.5 235 Z " /><path fill="rgb(0,195,212)" stroke="rgb(0,195,212)" stroke-width="1" opacity="0.24313725490196078" d="M 425.5 236 L 426 238.5 L 425 238.5 L 425.5 236 Z " /><path fill="rgb(0,195,212)" stroke="rgb(0,195,212)" stroke-width="1" opacity="0.24313725490196078" d="M 257.5 240 L 258 242.5 L 257 242.5 L 257.5 240 Z " /><path fill="rgb(0,195,212)" stroke="rgb(0,195,212)" stroke-width="1" opacity="0.24313725490196078" d="M 426.5 241 L 427 244.5 L 426 244.5 L 426.5 241 Z " /><path fill="rgb(0,195,212)" stroke="rgb(0,195,212)" stroke-width="1" opacity="0.24313725490196078" d="M 427.5 249 L 428 262.5 L 427 262.5 L 427.5 249 Z " /><path fill="rgb(0,195,212)" stroke="rgb(0,195,212)" stroke-width="1" opacity="0.24313725490196078" d="M 426.5 267 L 427 270.5 L 426 270.5 L 426.5 267 Z " /><path fill="rgb(0,195,212)" stroke="rgb(0,195,212)" stroke-width="1" opacity="0.24313725490196078" d="M 257.5 269 L 258 271.5 L 257 271.5 L 257.5 269 Z " /><path fill="rgb(0,195,212)" stroke="rgb(0,195,212)" stroke-width="1" opacity="0.24313725490196078" d="M 425.5 273 L 426 275.5 L 425 275.5 L 425.5 273 Z " /><path fill="rgb(0,195,212)" stroke="rgb(0,195,212)" stroke-width="1" opacity="0.24313725490196078" d="M 416.5 298 L 415.5 300 L 416.5 298 Z " /><path fill="rgb(0,195,212)" stroke="rgb(0,195,212)" stroke-width="1" opacity="0.24313725490196078" d="M 268.5 300 L 269.5 302 L 268.5 300 Z " /><path fill="rgb(0,195,212)" stroke="rgb(0,195,212)" stroke-width="1" opacity="0.24313725490196078" d="M 414.5 301 L 414 302.5 L 408.5 310 L 411 306.5 L 414.5 301 Z " /><path fill="rgb(0,195,212)" stroke="rgb(0,195,212)" stroke-width="1" opacity="0.24313725490196078" d="M 270.5 303 L 271.5 305 L 270.5 303 Z " /><path fill="rgb(0,195,212)" stroke="rgb(0,195,212)" stroke-width="1" opacity="0.24313725490196078" d="M 272.5 306 L 274.5 309 L 272.5 306 Z " /><path fill="rgb(0,195,212)" stroke="rgb(0,195,212)" stroke-width="1" opacity="0.24313725490196078" d="M 275.5 310 L 292 325.5 L 288.5 323 L 275.5 310 Z " /><path fill="rgb(0,195,212)" stroke="rgb(0,195,212)" stroke-width="1" opacity="0.24313725490196078" d="M 407.5 311 L 397.5 322 L 407.5 311 Z " /><path fill="rgb(0,195,212)" stroke="rgb(0,195,212)" stroke-width="1" opacity="0.24313725490196078" d="M 395.5 322 L 392.5 326 L 389.5 328 L 391.5 325 L 395.5 322 Z " /><path fill="rgb(0,195,212)" stroke="rgb(0,195,212)" stroke-width="1" opacity="0.24313725490196078" d="M 293.5 326 L 294.5 328 L 293.5 326 Z " /><path fill="rgb(0,195,212)" stroke="rgb(0,195,212)" stroke-width="1" opacity="0.24313725490196078" d="M 296.5 328 L 300 330.5 L 298.5 330 L 296.5 328 Z " /><path fill="rgb(0,195,212)" stroke="rgb(0,195,212)" stroke-width="1" opacity="0.24313725490196078" d="M 387.5 328 L 386.5 330 L 384.5 331 L 385.5 329 L 387.5 328 Z " /><path fill="rgb(0,195,212)" stroke="rgb(0,195,212)" stroke-width="1" opacity="0.24313725490196078" d="M 375.5 334 L 377 334.5 L 373.5 336 L 373.5 335 L 375.5 334 Z " /><path fill="rgb(0,195,212)" stroke="rgb(0,195,212)" stroke-width="1" opacity="0.24313725490196078" d="M 327.5 340 L 330 340.5 L 327.5 341 L 327.5 340 Z " /><path fill="rgb(0,195,212)" stroke="rgb(0,195,212)" stroke-width="1" opacity="0.24313725490196078" d="M 354.5 340 L 357 340.5 L 354.5 341 L 354.5 340 Z " /><path fill="rgb(0,195,212)" stroke="rgb(0,195,212)" stroke-width="1" opacity="0.24313725490196078" d="M 335.5 341 L 349 341.5 L 335.5 342 L 335.5 341 Z " /><path fill="rgb(0,195,212)" stroke="rgb(0,195,212)" stroke-width="1" opacity="0.24313725490196078" d="M 120.5 357 L 119.5 359 L 120.5 357 Z " /><path fill="rgb(0,195,212)" stroke="rgb(0,195,212)" stroke-width="1" opacity="0.24313725490196078" d="M 116.5 360 L 105.5 372 L 116.5 360 Z " /><path fill="rgb(0,195,212)" stroke="rgb(0,195,212)" stroke-width="1" opacity="0.24313725490196078" d="M 103.5 374 L 101.5 377 L 103.5 374 Z " /><path fill="rgb(0,195,212)" stroke="rgb(0,195,212)" stroke-width="1" opacity="0.24313725490196078" d="M 100.5 378 L 99.5 380 L 100.5 378 Z " /><path fill="rgb(0,195,212)" stroke="rgb(0,195,212)" stroke-width="1" opacity="0.24313725490196078" d="M 85.5 424 L 86 428.5 L 85 428.5 L 85.5 424 Z " /><path fill="rgb(0,195,212)" stroke="rgb(0,195,212)" stroke-width="1" opacity="0.24313725490196078" d="M 256.5 433 L 257 436.5 L 256 436.5 L 256.5 433 Z " /><path fill="rgb(0,195,212)" stroke="rgb(0,195,212)" stroke-width="1" opacity="0.24313725490196078" d="M 244.5 471 L 243.5 473 L 244.5 471 Z " /><path fill="rgb(0,195,212)" stroke="rgb(0,195,212)" stroke-width="1" opacity="0.24313725490196078" d="M 242.5 474 L 241.5 476 L 242.5 474 Z " /><path fill="rgb(0,195,212)" stroke="rgb(0,195,212)" stroke-width="1" opacity="0.24313725490196078" d="M 101.5 476 L 102.5 478 L 101.5 476 Z " /><path fill="rgb(0,195,212)" stroke="rgb(0,195,212)" stroke-width="1" opacity="0.24313725490196078" d="M 240.5 477 L 238.5 480 L 240.5 477 Z " /><path fill="rgb(0,195,212)" stroke="rgb(0,195,212)" stroke-width="1" opacity="0.24313725490196078" d="M 103.5 479 L 106.5 483 L 103.5 479 Z " /><path fill="rgb(0,195,212)" stroke="rgb(0,195,212)" stroke-width="1" opacity="0.24313725490196078" d="M 236.5 482 L 226.5 493 L 236.5 482 Z " /><path fill="rgb(0,195,212)" stroke="rgb(0,195,212)" stroke-width="1" opacity="0.24313725490196078" d="M 115.5 491 L 117.5 494 L 115.5 491 Z " /><path fill="rgb(0,195,212)" stroke="rgb(0,195,212)" stroke-width="1" opacity="0.24313725490196078" d="M 223.5 494 L 222.5 496 L 223.5 494 Z " /><path fill="rgb(0,195,212)" stroke="rgb(0,195,212)" stroke-width="1" opacity="0.24313725490196078" d="M 120.5 495 L 121.5 497 L 120.5 495 Z " /><path fill="rgb(0,206,128)" stroke="rgb(0,206,128)" stroke-width="1" opacity="0.7176470588235294" d="M 163.5 341 L 171 341.5 L 163.5 342 L 163.5 341 Z " /><path fill="rgb(0,206,128)" stroke="rgb(0,206,128)" stroke-width="1" opacity="0.7176470588235294" d="M 256.5 341 L 257 432.5 L 256 432.5 L 256.5 341 Z " /><path fill="rgb(0,206,128)" stroke="rgb(0,206,128)" stroke-width="1" opacity="0.7176470588235294" d="M 156.5 342 L 160 342.5 L 156.5 343 L 156.5 342 Z " /><path fill="rgb(0,206,128)" stroke="rgb(0,206,128)" stroke-width="1" opacity="0.7176470588235294" d="M 151.5 343 L 154 343.5 L 151.5 344 L 151.5 343 Z " /><path fill="rgb(0,206,128)" stroke="rgb(0,206,128)" stroke-width="1" opacity="0.7176470588235294" d="M 134.5 349 L 136 349.5 L 129.5 353 L 130.5 351 L 134.5 349 Z " /><path fill="rgb(0,206,128)" stroke="rgb(0,206,128)" stroke-width="1" opacity="0.7176470588235294" d="M 125.5 354 L 124.5 356 L 125.5 354 Z " /><path fill="rgb(0,206,128)" stroke="rgb(0,206,128)" stroke-width="1" opacity="0.7176470588235294" d="M 122.5 356 L 121.5 358 L 122.5 356 Z " /><path fill="rgb(0,206,128)" stroke="rgb(0,206,128)" stroke-width="1" opacity="0.7176470588235294" d="M 118.5 359 L 115.5 363 L 118.5 359 Z " /><path fill="rgb(0,206,128)" stroke="rgb(0,206,128)" stroke-width="1" opacity="0.7176470588235294" d="M 106.5 371 L 104.5 374 L 106.5 371 Z " /><path fill="rgb(0,206,128)" stroke="rgb(0,206,128)" stroke-width="1" opacity="0.7176470588235294" d="M 102.5 376 L 101.5 378 L 102.5 376 Z " /><path fill="rgb(0,206,128)" stroke="rgb(0,206,128)" stroke-width="1" opacity="0.7176470588235294" d="M 100.5 379 L 99.5 381 L 100.5 379 Z " /><path fill="rgb(0,206,128)" stroke="rgb(0,206,128)" stroke-width="1" opacity="0.7176470588235294" d="M 98.5 382 L 97.5 384 L 98.5 382 Z " /><path fill="rgb(0,206,128)" stroke="rgb(0,206,128)" stroke-width="1" opacity="0.7176470588235294" d="M 87.5 409 L 88 411.5 L 87 411.5 L 87.5 409 Z " /><path fill="rgb(0,206,128)" stroke="rgb(0,206,128)" stroke-width="1" opacity="0.7176470588235294" d="M 86.5 415 L 87 420.5 L 86 420.5 L 86.5 415 Z " /><path fill="rgb(0,206,128)" stroke="rgb(0,206,128)" stroke-width="1" opacity="0.7176470588235294" d="M 86.5 432 L 87 437.5 L 86 437.5 L 86.5 432 Z " /><path fill="rgb(0,206,128)" stroke="rgb(0,206,128)" stroke-width="1" opacity="0.7176470588235294" d="M 255.5 438 L 256 440.5 L 255 440.5 L 255.5 438 Z " /><path fill="rgb(0,206,128)" stroke="rgb(0,206,128)" stroke-width="1" opacity="0.7176470588235294" d="M 87.5 441 L 88 443.5 L 87 443.5 L 87.5 441 Z " /><path fill="rgb(0,206,128)" stroke="rgb(0,206,128)" stroke-width="1" opacity="0.7176470588235294" d="M 244.5 470 L 243.5 472 L 244.5 470 Z " /><path fill="rgb(0,206,128)" stroke="rgb(0,206,128)" stroke-width="1" opacity="0.7176470588235294" d="M 98.5 471 L 99.5 473 L 98.5 471 Z " /><path fill="rgb(0,206,128)" stroke="rgb(0,206,128)" stroke-width="1" opacity="0.7176470588235294" d="M 100.5 474 L 101.5 476 L 100.5 474 Z " /><path fill="rgb(0,206,128)" stroke="rgb(0,206,128)" stroke-width="1" opacity="0.7176470588235294" d="M 240.5 476 L 239.5 478 L 240.5 476 Z " /><path fill="rgb(0,206,128)" stroke="rgb(0,206,128)" stroke-width="1" opacity="0.7176470588235294" d="M 103.5 478 L 104.5 480 L 103.5 478 Z " /><path fill="rgb(0,206,128)" stroke="rgb(0,206,128)" stroke-width="1" opacity="0.7176470588235294" d="M 237.5 480 L 234.5 484 L 237.5 480 Z " /><path fill="rgb(0,206,128)" stroke="rgb(0,206,128)" stroke-width="1" opacity="0.7176470588235294" d="M 107.5 483 L 114.5 491 L 107.5 483 Z " /><path fill="rgb(0,206,128)" stroke="rgb(0,206,128)" stroke-width="1" opacity="0.7176470588235294" d="M 228.5 489 L 224.5 494 L 228.5 489 Z " /><path fill="rgb(0,206,128)" stroke="rgb(0,206,128)" stroke-width="1" opacity="0.7176470588235294" d="M 117.5 492 L 119.5 495 L 117.5 492 Z " /><path fill="rgb(0,206,128)" stroke="rgb(0,206,128)" stroke-width="1" opacity="0.7176470588235294" d="M 222.5 494 L 220.5 497 L 222.5 494 Z " /><path fill="rgb(0,206,128)" stroke="rgb(0,206,128)" stroke-width="1" opacity="0.7176470588235294" d="M 122.5 496 L 123.5 498 L 122.5 496 Z " /><path fill="rgb(0,206,128)" stroke="rgb(0,206,128)" stroke-width="1" opacity="0.7176470588235294" d="M 218.5 497 L 217.5 499 L 218.5 497 Z " /><path fill="rgb(0,206,128)" stroke="rgb(0,206,128)" stroke-width="1" opacity="0.7176470588235294" d="M 125.5 498 L 126.5 500 L 125.5 498 Z " /><path fill="rgb(0,206,128)" stroke="rgb(0,206,128)" stroke-width="1" opacity="0.7176470588235294" d="M 213.5 500 L 212.5 502 L 213.5 500 Z " /><path fill="rgb(0,206,128)" stroke="rgb(0,206,128)" stroke-width="1" opacity="0.7176470588235294" d="M 190.5 509 L 193 509.5 L 190.5 510 L 190.5 509 Z " /><path fill="rgb(0,206,128)" stroke="rgb(0,206,128)" stroke-width="1" opacity="0.7176470588235294" d="M 154.5 510 L 157 510.5 L 154.5 511 L 154.5 510 Z " /><path fill="rgb(0,206,128)" stroke="rgb(0,206,128)" stroke-width="1" opacity="0.7176470588235294" d="M 185.5 510 L 188 510.5 L 185.5 511 L 185.5 510 Z " /><path fill="rgb(0,206,128)" stroke="rgb(0,206,128)" stroke-width="1" opacity="0.7176470588235294" d="M 160.5 511 L 167 511.5 L 160.5 512 L 160.5 511 Z " /><path fill="rgb(0,206,128)" stroke="rgb(0,206,128)" stroke-width="1" opacity="0.7176470588235294" d="M 176.5 511 L 182 511.5 L 176.5 512 L 176.5 511 Z " /><path fill="rgb(0,206,127)" stroke="rgb(0,206,127)" stroke-width="1" opacity="0.996078431372549" d="M 172.5 341 L 256 341 L 256 437.5 Q 250 470.5 229.5 489 Q 216.5 501.5 197.5 508 L 184.5 511 L 167.5 512 L 166.5 511 L 157.5 511 L 148.5 509 L 127.5 500 Q 114.6 491.9 105 480.5 Q 94.4 467.6 89 449.5 L 87 440.5 L 87 432.5 L 86 431.5 L 86 421.5 L 87 420.5 L 88 407.5 L 93 392.5 Q 101 375 114.5 363 Q 125.5 353 140.5 347 L 154.5 343 L 171.5 342 L 172.5 341 Z " /></svg>