<svg width="512" height="512" version="1.1" xmlns="http://www.w3.org/2000/svg" desc="Created with imagetracer.js version 1.2.6" ><path fill="rgb(250,249,248)" stroke="rgb(250,249,248)" stroke-width="1" opacity="1" d="M 116 94 L 395.5 94 L 396 94.5 L 396 105.5 L 395 106.5 L 394 127.5 L 393 128.5 L 392 149.5 L 390.5 151 L 177.5 151 Q 176.3 151.3 177 157.5 L 178 158.5 L 178 169.5 L 179 170.5 L 180 192.5 L 181 193.5 L 181 203.5 L 182 209 L 385.5 209 L 386 209.5 L 386 218.5 L 385 219.5 L 383 252.5 L 382 253.5 L 382 263.5 L 381 264.5 L 381 274.5 L 380 275.5 L 380 285.5 L 379 286.5 L 379 297.5 L 378 298.5 L 378 308.5 L 377 309.5 L 377 319.5 L 376 320.5 L 376 330.5 L 375 331.5 L 372 376.5 L 369.5 383 L 269.5 410 L 258.5 414 L 253.5 414 L 142.5 383 L 141 381.5 L 133 291 L 188.5 291 L 189 293.5 L 190 294.5 L 193 337.5 L 194.5 339 L 252.5 355 L 258.5 355 L 314.5 340 L 319 337.5 L 319 328.5 L 320 327.5 L 321 305.5 L 322 304.5 L 322 294.5 L 323 293.5 L 323 283.5 L 324 282.5 L 325 265 L 131.5 265 L 130 263.5 L 130 252.5 L 129 251.5 L 129 241.5 L 128 240.5 L 128 230.5 L 127 229.5 L 127 219.5 L 126 218.5 L 126 207.5 L 125 206.5 L 125 196.5 L 124 195.5 L 124 185.5 L 123 184.5 L 123 174.5 L 122 173.5 L 122 162.5 L 121 161.5 L 121 151.5 L 120 150.5 L 120 140.5 L 119 139.5 L 119 128.5 L 118 127.5 L 116 94 Z " /><path fill="rgb(255,87,33)" stroke="rgb(255,87,33)" stroke-width="1" opacity="0.4980392156862745" d="M 32.5 3 L 33 10.5 L 32 10.5 L 32.5 3 Z " /><path fill="rgb(255,87,33)" stroke="rgb(255,87,33)" stroke-width="1" opacity="0.4980392156862745" d="M 479.5 3 L 480 10.5 L 479 10.5 L 479.5 3 Z " /><path fill="rgb(255,87,33)" stroke="rgb(255,87,33)" stroke-width="1" opacity="0.4980392156862745" d="M 33.5 14 L 34 22.5 L 33 22.5 L 33.5 14 Z " /><path fill="rgb(255,87,33)" stroke="rgb(255,87,33)" stroke-width="1" opacity="0.4980392156862745" d="M 478.5 14 L 479 22.5 L 478 22.5 L 478.5 14 Z " /><path fill="rgb(255,87,33)" stroke="rgb(255,87,33)" stroke-width="1" opacity="0.4980392156862745" d="M 34.5 25 L 35 33.5 L 34 33.5 L 34.5 25 Z " /><path fill="rgb(255,87,33)" stroke="rgb(255,87,33)" stroke-width="1" opacity="0.4980392156862745" d="M 477.5 25 L 478 33.5 L 477 33.5 L 477.5 25 Z " /><path fill="rgb(255,87,33)" stroke="rgb(255,87,33)" stroke-width="1" opacity="0.4980392156862745" d="M 35.5 37 L 36 44.5 L 35 44.5 L 35.5 37 Z " /><path fill="rgb(255,87,33)" stroke="rgb(255,87,33)" stroke-width="1" opacity="0.4980392156862745" d="M 476.5 37 L 477 44.5 L 476 44.5 L 476.5 37 Z " /><path fill="rgb(255,87,33)" stroke="rgb(255,87,33)" stroke-width="1" opacity="0.4980392156862745" d="M 36.5 48 L 37 56.5 L 36 56.5 L 36.5 48 Z " /><path fill="rgb(255,87,33)" stroke="rgb(255,87,33)" stroke-width="1" opacity="0.4980392156862745" d="M 475.5 48 L 476 56.5 L 475 56.5 L 475.5 48 Z " /><path fill="rgb(255,87,33)" stroke="rgb(255,87,33)" stroke-width="1" opacity="0.4980392156862745" d="M 37.5 59 L 38 67.5 L 37 67.5 L 37.5 59 Z " /><path fill="rgb(255,87,33)" stroke="rgb(255,87,33)" stroke-width="1" opacity="0.4980392156862745" d="M 474.5 59 L 475 67.5 L 474 67.5 L 474.5 59 Z " /><path fill="rgb(255,87,33)" stroke="rgb(255,87,33)" stroke-width="1" opacity="0.4980392156862745" d="M 473.5 70 L 474 78.5 L 473 78.5 L 473.5 70 Z " /><path fill="rgb(255,87,33)" stroke="rgb(255,87,33)" stroke-width="1" opacity="0.4980392156862745" d="M 38.5 71 L 39 78.5 L 38 78.5 L 38.5 71 Z " /><path fill="rgb(255,87,33)" stroke="rgb(255,87,33)" stroke-width="1" opacity="0.4980392156862745" d="M 39.5 82 L 40 90.5 L 39 90.5 L 39.5 82 Z " /><path fill="rgb(255,87,33)" stroke="rgb(255,87,33)" stroke-width="1" opacity="0.4980392156862745" d="M 472.5 82 L 473 89.5 L 472 89.5 L 472.5 82 Z " /><path fill="rgb(255,87,33)" stroke="rgb(255,87,33)" stroke-width="1" opacity="0.4980392156862745" d="M 40.5 93 L 41 101.5 L 40 101.5 L 40.5 93 Z " /><path fill="rgb(255,87,33)" stroke="rgb(255,87,33)" stroke-width="1" opacity="0.4980392156862745" d="M 471.5 93 L 472 101.5 L 471 101.5 L 471.5 93 Z " /><path fill="rgb(255,87,33)" stroke="rgb(255,87,33)" stroke-width="1" opacity="0.4980392156862745" d="M 41.5 104 L 42 112.5 L 41 112.5 L 41.5 104 Z " /><path fill="rgb(255,87,33)" stroke="rgb(255,87,33)" stroke-width="1" opacity="0.4980392156862745" d="M 470.5 104 L 471 112.5 L 470 112.5 L 470.5 104 Z " /><path fill="rgb(255,87,33)" stroke="rgb(255,87,33)" stroke-width="1" opacity="0.4980392156862745" d="M 42.5 116 L 43 123.5 L 42 123.5 L 42.5 116 Z " /><path fill="rgb(255,87,33)" stroke="rgb(255,87,33)" stroke-width="1" opacity="0.4980392156862745" d="M 469.5 116 L 470 123.5 L 469 123.5 L 469.5 116 Z " /><path fill="rgb(255,87,33)" stroke="rgb(255,87,33)" stroke-width="1" opacity="0.4980392156862745" d="M 43.5 127 L 44 135.5 L 43 135.5 L 43.5 127 Z " /><path fill="rgb(255,87,33)" stroke="rgb(255,87,33)" stroke-width="1" opacity="0.4980392156862745" d="M 468.5 127 L 469 134.5 L 468 134.5 L 468.5 127 Z " /><path fill="rgb(255,87,33)" stroke="rgb(255,87,33)" stroke-width="1" opacity="0.4980392156862745" d="M 44.5 138 L 45 146.5 L 44 146.5 L 44.5 138 Z " /><path fill="rgb(255,87,33)" stroke="rgb(255,87,33)" stroke-width="1" opacity="0.4980392156862745" d="M 467.5 138 L 468 146.5 L 467 146.5 L 467.5 138 Z " /><path fill="rgb(255,87,33)" stroke="rgb(255,87,33)" stroke-width="1" opacity="0.4980392156862745" d="M 466.5 149 L 467 157.5 L 466 157.5 L 466.5 149 Z " /><path fill="rgb(255,87,33)" stroke="rgb(255,87,33)" stroke-width="1" opacity="0.4980392156862745" d="M 45.5 150 L 46 157.5 L 45 157.5 L 45.5 150 Z " /><path fill="rgb(255,87,33)" stroke="rgb(255,87,33)" stroke-width="1" opacity="0.4980392156862745" d="M 46.5 161 L 47 169.5 L 46 169.5 L 46.5 161 Z " /><path fill="rgb(255,87,33)" stroke="rgb(255,87,33)" stroke-width="1" opacity="0.4980392156862745" d="M 465.5 161 L 466 168.5 L 465 168.5 L 465.5 161 Z " /><path fill="rgb(255,87,33)" stroke="rgb(255,87,33)" stroke-width="1" opacity="0.4980392156862745" d="M 47.5 172 L 48 180.5 L 47 180.5 L 47.5 172 Z " /><path fill="rgb(255,87,33)" stroke="rgb(255,87,33)" stroke-width="1" opacity="0.4980392156862745" d="M 464.5 172 L 465 180.5 L 464 180.5 L 464.5 172 Z " /><path fill="rgb(255,87,33)" stroke="rgb(255,87,33)" stroke-width="1" opacity="0.4980392156862745" d="M 48.5 183 L 49 191.5 L 48 191.5 L 48.5 183 Z " /><path fill="rgb(255,87,33)" stroke="rgb(255,87,33)" stroke-width="1" opacity="0.4980392156862745" d="M 463.5 183 L 464 191.5 L 463 191.5 L 463.5 183 Z " /><path fill="rgb(255,87,33)" stroke="rgb(255,87,33)" stroke-width="1" opacity="0.4980392156862745" d="M 462.5 194 L 463 202.5 L 462 202.5 L 462.5 194 Z " /><path fill="rgb(255,87,33)" stroke="rgb(255,87,33)" stroke-width="1" opacity="0.4980392156862745" d="M 49.5 195 L 50 202.5 L 49 202.5 L 49.5 195 Z " /><path fill="rgb(255,87,33)" stroke="rgb(255,87,33)" stroke-width="1" opacity="0.4980392156862745" d="M 50.5 206 L 51 214.5 L 50 214.5 L 50.5 206 Z " /><path fill="rgb(255,87,33)" stroke="rgb(255,87,33)" stroke-width="1" opacity="0.4980392156862745" d="M 461.5 206 L 462 213.5 L 461 213.5 L 461.5 206 Z " /><path fill="rgb(255,87,33)" stroke="rgb(255,87,33)" stroke-width="1" opacity="0.4980392156862745" d="M 51.5 217 L 52 225.5 L 51 225.5 L 51.5 217 Z " /><path fill="rgb(255,87,33)" stroke="rgb(255,87,33)" stroke-width="1" opacity="0.4980392156862745" d="M 460.5 217 L 461 225.5 L 460 225.5 L 460.5 217 Z " /><path fill="rgb(255,87,33)" stroke="rgb(255,87,33)" stroke-width="1" opacity="0.4980392156862745" d="M 459.5 228 L 460 236.5 L 459 236.5 L 459.5 228 Z " /><path fill="rgb(255,87,33)" stroke="rgb(255,87,33)" stroke-width="1" opacity="0.4980392156862745" d="M 52.5 229 L 53 236.5 L 52 236.5 L 52.5 229 Z " /><path fill="rgb(255,87,33)" stroke="rgb(255,87,33)" stroke-width="1" opacity="0.4980392156862745" d="M 53.5 240 L 54 248.5 L 53 248.5 L 53.5 240 Z " /><path fill="rgb(255,87,33)" stroke="rgb(255,87,33)" stroke-width="1" opacity="0.4980392156862745" d="M 458.5 240 L 459 247.5 L 458 247.5 L 458.5 240 Z " /><path fill="rgb(255,87,33)" stroke="rgb(255,87,33)" stroke-width="1" opacity="0.4980392156862745" d="M 54.5 251 L 55 259.5 L 54 259.5 L 54.5 251 Z " /><path fill="rgb(255,87,33)" stroke="rgb(255,87,33)" stroke-width="1" opacity="0.4980392156862745" d="M 457.5 251 L 458 259.5 L 457 259.5 L 457.5 251 Z " /><path fill="rgb(255,87,33)" stroke="rgb(255,87,33)" stroke-width="1" opacity="0.4980392156862745" d="M 456.5 262 L 457 270.5 L 456 270.5 L 456.5 262 Z " /><path fill="rgb(255,87,33)" stroke="rgb(255,87,33)" stroke-width="1" opacity="0.4980392156862745" d="M 55.5 263 L 56 270.5 L 55 270.5 L 55.5 263 Z " /><path fill="rgb(255,87,33)" stroke="rgb(255,87,33)" stroke-width="1" opacity="0.4980392156862745" d="M 455.5 273 L 456 281.5 L 455 281.5 L 455.5 273 Z " /><path fill="rgb(255,87,33)" stroke="rgb(255,87,33)" stroke-width="1" opacity="0.4980392156862745" d="M 56.5 274 L 57 281.5 L 56 281.5 L 56.5 274 Z " /><path fill="rgb(255,87,33)" stroke="rgb(255,87,33)" stroke-width="1" opacity="0.4980392156862745" d="M 57.5 285 L 58 293.5 L 57 293.5 L 57.5 285 Z " /><path fill="rgb(255,87,33)" stroke="rgb(255,87,33)" stroke-width="1" opacity="0.4980392156862745" d="M 454.5 285 L 455 292.5 L 454 292.5 L 454.5 285 Z " /><path fill="rgb(255,87,33)" stroke="rgb(255,87,33)" stroke-width="1" opacity="0.4980392156862745" d="M 58.5 296 L 59 304.5 L 58 304.5 L 58.5 296 Z " /><path fill="rgb(255,87,33)" stroke="rgb(255,87,33)" stroke-width="1" opacity="0.4980392156862745" d="M 453.5 296 L 454 304.5 L 453 304.5 L 453.5 296 Z " /><path fill="rgb(255,87,33)" stroke="rgb(255,87,33)" stroke-width="1" opacity="0.4980392156862745" d="M 452.5 307 L 453 315.5 L 452 315.5 L 452.5 307 Z " /><path fill="rgb(255,87,33)" stroke="rgb(255,87,33)" stroke-width="1" opacity="0.4980392156862745" d="M 59.5 308 L 60 315.5 L 59 315.5 L 59.5 308 Z " /><path fill="rgb(255,87,33)" stroke="rgb(255,87,33)" stroke-width="1" opacity="0.4980392156862745" d="M 60.5 319 L 61 327.5 L 60 327.5 L 60.5 319 Z " /><path fill="rgb(255,87,33)" stroke="rgb(255,87,33)" stroke-width="1" opacity="0.4980392156862745" d="M 451.5 319 L 452 326.5 L 451 326.5 L 451.5 319 Z " /><path fill="rgb(255,87,33)" stroke="rgb(255,87,33)" stroke-width="1" opacity="0.4980392156862745" d="M 61.5 330 L 62 338.5 L 61 338.5 L 61.5 330 Z " /><path fill="rgb(255,87,33)" stroke="rgb(255,87,33)" stroke-width="1" opacity="0.4980392156862745" d="M 450.5 330 L 451 337.5 L 450 337.5 L 450.5 330 Z " /><path fill="rgb(255,87,33)" stroke="rgb(255,87,33)" stroke-width="1" opacity="0.4980392156862745" d="M 449.5 341 L 450 349.5 L 449 349.5 L 449.5 341 Z " /><path fill="rgb(255,87,33)" stroke="rgb(255,87,33)" stroke-width="1" opacity="0.4980392156862745" d="M 62.5 342 L 63 349.5 L 62 349.5 L 62.5 342 Z " /><path fill="rgb(255,87,33)" stroke="rgb(255,87,33)" stroke-width="1" opacity="0.4980392156862745" d="M 448.5 352 L 449 360.5 L 448 360.5 L 448.5 352 Z " /><path fill="rgb(255,87,33)" stroke="rgb(255,87,33)" stroke-width="1" opacity="0.4980392156862745" d="M 63.5 353 L 64 361.5 L 63 361.5 L 63.5 353 Z " /><path fill="rgb(255,87,33)" stroke="rgb(255,87,33)" stroke-width="1" opacity="0.4980392156862745" d="M 64.5 364 L 65 372.5 L 64 372.5 L 64.5 364 Z " /><path fill="rgb(255,87,33)" stroke="rgb(255,87,33)" stroke-width="1" opacity="0.4980392156862745" d="M 447.5 364 L 448 371.5 L 447 371.5 L 447.5 364 Z " /><path fill="rgb(255,87,33)" stroke="rgb(255,87,33)" stroke-width="1" opacity="0.4980392156862745" d="M 65.5 375 L 66 383.5 L 65 383.5 L 65.5 375 Z " /><path fill="rgb(255,87,33)" stroke="rgb(255,87,33)" stroke-width="1" opacity="0.4980392156862745" d="M 446.5 375 L 447 383.5 L 446 383.5 L 446.5 375 Z " /><path fill="rgb(255,87,33)" stroke="rgb(255,87,33)" stroke-width="1" opacity="0.4980392156862745" d="M 445.5 386 L 446 394.5 L 445 394.5 L 445.5 386 Z " /><path fill="rgb(255,87,33)" stroke="rgb(255,87,33)" stroke-width="1" opacity="0.4980392156862745" d="M 66.5 387 L 67 394.5 L 66 394.5 L 66.5 387 Z " /><path fill="rgb(255,87,33)" stroke="rgb(255,87,33)" stroke-width="1" opacity="0.4980392156862745" d="M 444.5 397 L 445 405.5 L 444 405.5 L 444.5 397 Z " /><path fill="rgb(255,87,33)" stroke="rgb(255,87,33)" stroke-width="1" opacity="0.4980392156862745" d="M 67.5 398 L 68 406.5 L 67 406.5 L 67.5 398 Z " /><path fill="rgb(255,87,33)" stroke="rgb(255,87,33)" stroke-width="1" opacity="0.4980392156862745" d="M 68.5 409 L 69 417.5 L 68 417.5 L 68.5 409 Z " /><path fill="rgb(255,87,33)" stroke="rgb(255,87,33)" stroke-width="1" opacity="0.4980392156862745" d="M 443.5 409 L 444 416.5 L 443 416.5 L 443.5 409 Z " /><path fill="rgb(255,87,33)" stroke="rgb(255,87,33)" stroke-width="1" opacity="0.4980392156862745" d="M 442.5 420 L 443 428.5 L 442 428.5 L 442.5 420 Z " /><path fill="rgb(255,87,33)" stroke="rgb(255,87,33)" stroke-width="1" opacity="0.4980392156862745" d="M 69.5 421 L 70 428.5 L 69 428.5 L 69.5 421 Z " /><path fill="rgb(255,87,33)" stroke="rgb(255,87,33)" stroke-width="1" opacity="0.4980392156862745" d="M 441.5 431 L 442 439.5 L 441 439.5 L 441.5 431 Z " /><path fill="rgb(255,87,33)" stroke="rgb(255,87,33)" stroke-width="1" opacity="0.4980392156862745" d="M 70.5 432 L 71 440.5 L 70 440.5 L 70.5 432 Z " /><path fill="rgb(255,87,33)" stroke="rgb(255,87,33)" stroke-width="1" opacity="0.4980392156862745" d="M 71.5 443 L 72 451.5 L 71 451.5 L 71.5 443 Z " /><path fill="rgb(255,87,33)" stroke="rgb(255,87,33)" stroke-width="1" opacity="0.4980392156862745" d="M 440.5 443 L 441 450.5 L 440 450.5 L 440.5 443 Z " /><path fill="rgb(255,87,33)" stroke="rgb(255,87,33)" stroke-width="1" opacity="0.4980392156862745" d="M 72.5 454 L 73 461 L 76 461.5 L 73.5 462 Q 70.1 460.1 72.5 454 Z " /><path fill="rgb(255,87,33)" stroke="rgb(255,87,33)" stroke-width="1" opacity="0.4980392156862745" d="M 439.5 454 L 440 460.5 L 436.5 462 L 436.5 461 L 439 461 L 439.5 454 Z " /><path fill="rgb(255,87,33)" stroke="rgb(255,87,33)" stroke-width="1" opacity="0.4980392156862745" d="M 77.5 462 L 83 463.5 L 80.5 464 L 77.5 463 L 77.5 462 Z " /><path fill="rgb(255,87,33)" stroke="rgb(255,87,33)" stroke-width="1" opacity="0.4980392156862745" d="M 432.5 462 L 435 462.5 L 429.5 464 L 429.5 463 L 432.5 462 Z " /><path fill="rgb(255,87,33)" stroke="rgb(255,87,33)" stroke-width="1" opacity="0.4980392156862745" d="M 84.5 464 L 90 465.5 L 87.5 466 L 84.5 465 L 84.5 464 Z " /><path fill="rgb(255,87,33)" stroke="rgb(255,87,33)" stroke-width="1" opacity="0.4980392156862745" d="M 425.5 464 L 428 464.5 L 422.5 466 L 422.5 465 L 425.5 464 Z " /><path fill="rgb(255,87,33)" stroke="rgb(255,87,33)" stroke-width="1" opacity="0.4980392156862745" d="M 91.5 466 L 94 466.5 L 91.5 467 L 91.5 466 Z " /><path fill="rgb(255,87,33)" stroke="rgb(255,87,33)" stroke-width="1" opacity="0.4980392156862745" d="M 418.5 466 L 421 466.5 L 418.5 467 L 418.5 466 Z " /><path fill="rgb(255,87,33)" stroke="rgb(255,87,33)" stroke-width="1" opacity="0.4980392156862745" d="M 95.5 467 L 101 468.5 L 98.5 469 L 95.5 468 L 95.5 467 Z " /><path fill="rgb(255,87,33)" stroke="rgb(255,87,33)" stroke-width="1" opacity="0.4980392156862745" d="M 414.5 467 L 417 467.5 L 411.5 469 L 411.5 468 L 414.5 467 Z " /><path fill="rgb(255,87,33)" stroke="rgb(255,87,33)" stroke-width="1" opacity="0.4980392156862745" d="M 102.5 469 L 108 470.5 L 105.5 471 L 102.5 470 L 102.5 469 Z " /><path fill="rgb(255,87,33)" stroke="rgb(255,87,33)" stroke-width="1" opacity="0.4980392156862745" d="M 407.5 469 L 410 469.5 L 404.5 471 L 404.5 470 L 407.5 469 Z " /><path fill="rgb(255,87,33)" stroke="rgb(255,87,33)" stroke-width="1" opacity="0.4980392156862745" d="M 109.5 471 L 112 471.5 L 109.5 472 L 109.5 471 Z " /><path fill="rgb(255,87,33)" stroke="rgb(255,87,33)" stroke-width="1" opacity="0.4980392156862745" d="M 400.5 471 L 403 471.5 L 397.5 473 L 397.5 472 L 400.5 471 Z " /><path fill="rgb(255,87,33)" stroke="rgb(255,87,33)" stroke-width="1" opacity="0.4980392156862745" d="M 113.5 472 L 119 473.5 L 116.5 474 L 113.5 473 L 113.5 472 Z " /><path fill="rgb(255,87,33)" stroke="rgb(255,87,33)" stroke-width="1" opacity="0.4980392156862745" d="M 393.5 473 L 396 473.5 L 393.5 474 L 393.5 473 Z " /><path fill="rgb(255,87,33)" stroke="rgb(255,87,33)" stroke-width="1" opacity="0.4980392156862745" d="M 120.5 474 L 126 475.5 L 123.5 476 L 120.5 475 L 120.5 474 Z " /><path fill="rgb(255,87,33)" stroke="rgb(255,87,33)" stroke-width="1" opacity="0.4980392156862745" d="M 389.5 474 L 392 474.5 L 386.5 476 L 386.5 475 L 389.5 474 Z " /><path fill="rgb(255,87,33)" stroke="rgb(255,87,33)" stroke-width="1" opacity="0.4980392156862745" d="M 127.5 476 L 133 477.5 L 130.5 478 L 127.5 477 L 127.5 476 Z " /><path fill="rgb(255,87,33)" stroke="rgb(255,87,33)" stroke-width="1" opacity="0.4980392156862745" d="M 382.5 476 L 385 476.5 L 379.5 478 L 379.5 477 L 382.5 476 Z " /><path fill="rgb(255,87,33)" stroke="rgb(255,87,33)" stroke-width="1" opacity="0.4980392156862745" d="M 134.5 478 L 137 478.5 L 134.5 479 L 134.5 478 Z " /><path fill="rgb(255,87,33)" stroke="rgb(255,87,33)" stroke-width="1" opacity="0.4980392156862745" d="M 375.5 478 L 378 478.5 L 375.5 479 L 375.5 478 Z " /><path fill="rgb(255,87,33)" stroke="rgb(255,87,33)" stroke-width="1" opacity="0.4980392156862745" d="M 138.5 479 L 144 480.5 L 141.5 481 L 138.5 480 L 138.5 479 Z " /><path fill="rgb(255,87,33)" stroke="rgb(255,87,33)" stroke-width="1" opacity="0.4980392156862745" d="M 371.5 479 L 374 479.5 L 368.5 481 L 368.5 480 L 371.5 479 Z " /><path fill="rgb(255,87,33)" stroke="rgb(255,87,33)" stroke-width="1" opacity="0.4980392156862745" d="M 145.5 481 L 151 482.5 L 148.5 483 L 145.5 482 L 145.5 481 Z " /><path fill="rgb(255,87,33)" stroke="rgb(255,87,33)" stroke-width="1" opacity="0.4980392156862745" d="M 364.5 481 L 367 481.5 L 361.5 483 L 361.5 482 L 364.5 481 Z " /><path fill="rgb(255,87,33)" stroke="rgb(255,87,33)" stroke-width="1" opacity="0.4980392156862745" d="M 152.5 483 L 158 484.5 L 155.5 485 L 152.5 484 L 152.5 483 Z " /><path fill="rgb(255,87,33)" stroke="rgb(255,87,33)" stroke-width="1" opacity="0.4980392156862745" d="M 357.5 483 L 360 483.5 L 354.5 485 L 354.5 484 L 357.5 483 Z " /><path fill="rgb(255,87,33)" stroke="rgb(255,87,33)" stroke-width="1" opacity="0.4980392156862745" d="M 159.5 485 L 162 485.5 L 159.5 486 L 159.5 485 Z " /><path fill="rgb(255,87,33)" stroke="rgb(255,87,33)" stroke-width="1" opacity="0.4980392156862745" d="M 350.5 485 L 353 485.5 L 350.5 486 L 350.5 485 Z " /><path fill="rgb(255,87,33)" stroke="rgb(255,87,33)" stroke-width="1" opacity="0.4980392156862745" d="M 163.5 486 L 169 487.5 L 166.5 488 L 163.5 487 L 163.5 486 Z " /><path fill="rgb(255,87,33)" stroke="rgb(255,87,33)" stroke-width="1" opacity="0.4980392156862745" d="M 346.5 486 L 349 486.5 L 343.5 488 L 343.5 487 L 346.5 486 Z " /><path fill="rgb(255,87,33)" stroke="rgb(255,87,33)" stroke-width="1" opacity="0.4980392156862745" d="M 170.5 488 L 176 489.5 L 173.5 490 L 170.5 489 L 170.5 488 Z " /><path fill="rgb(255,87,33)" stroke="rgb(255,87,33)" stroke-width="1" opacity="0.4980392156862745" d="M 339.5 488 L 342 488.5 L 336.5 490 L 336.5 489 L 339.5 488 Z " /><path fill="rgb(255,87,33)" stroke="rgb(255,87,33)" stroke-width="1" opacity="0.4980392156862745" d="M 177.5 490 L 180 490.5 L 177.5 491 L 177.5 490 Z " /><path fill="rgb(255,87,33)" stroke="rgb(255,87,33)" stroke-width="1" opacity="0.4980392156862745" d="M 332.5 490 L 335 490.5 L 325.5 493 L 325.5 492 L 332.5 490 Z " /><path fill="rgb(255,87,33)" stroke="rgb(255,87,33)" stroke-width="1" opacity="0.4980392156862745" d="M 181.5 491 L 187 492.5 L 184.5 493 L 181.5 492 L 181.5 491 Z " /><path fill="rgb(255,87,33)" stroke="rgb(255,87,33)" stroke-width="1" opacity="0.4980392156862745" d="M 188.5 493 L 194 494.5 L 191.5 495 L 188.5 494 L 188.5 493 Z " /><path fill="rgb(255,87,33)" stroke="rgb(255,87,33)" stroke-width="1" opacity="0.4980392156862745" d="M 321.5 493 L 324 493.5 L 318.5 495 L 318.5 494 L 321.5 493 Z " /><path fill="rgb(255,87,33)" stroke="rgb(255,87,33)" stroke-width="1" opacity="0.4980392156862745" d="M 195.5 495 L 201 496.5 L 198.5 497 L 195.5 496 L 195.5 495 Z " /><path fill="rgb(255,87,33)" stroke="rgb(255,87,33)" stroke-width="1" opacity="0.4980392156862745" d="M 314.5 495 L 317 495.5 L 311.5 497 L 311.5 496 L 314.5 495 Z " /><path fill="rgb(255,87,33)" stroke="rgb(255,87,33)" stroke-width="1" opacity="0.4980392156862745" d="M 202.5 497 L 205 497.5 L 202.5 498 L 202.5 497 Z " /><path fill="rgb(255,87,33)" stroke="rgb(255,87,33)" stroke-width="1" opacity="0.4980392156862745" d="M 307.5 497 L 310 497.5 L 307.5 498 L 307.5 497 Z " /><path fill="rgb(255,87,33)" stroke="rgb(255,87,33)" stroke-width="1" opacity="0.4980392156862745" d="M 206.5 498 L 212 499.5 L 209.5 500 L 206.5 499 L 206.5 498 Z " /><path fill="rgb(255,87,33)" stroke="rgb(255,87,33)" stroke-width="1" opacity="0.4980392156862745" d="M 303.5 498 L 306 498.5 L 300.5 500 L 300.5 499 L 303.5 498 Z " /><path fill="rgb(255,87,33)" stroke="rgb(255,87,33)" stroke-width="1" opacity="0.4980392156862745" d="M 213.5 500 L 219 501.5 L 216.5 502 L 213.5 501 L 213.5 500 Z " /><path fill="rgb(255,87,33)" stroke="rgb(255,87,33)" stroke-width="1" opacity="0.4980392156862745" d="M 296.5 500 L 299 500.5 L 293.5 502 L 293.5 501 L 296.5 500 Z " /><path fill="rgb(255,87,33)" stroke="rgb(255,87,33)" stroke-width="1" opacity="0.4980392156862745" d="M 220.5 502 L 226 503.5 L 223.5 504 L 220.5 503 L 220.5 502 Z " /><path fill="rgb(255,87,33)" stroke="rgb(255,87,33)" stroke-width="1" opacity="0.4980392156862745" d="M 289.5 502 L 292 502.5 L 286.5 504 L 286.5 503 L 289.5 502 Z " /><path fill="rgb(255,87,33)" stroke="rgb(255,87,33)" stroke-width="1" opacity="0.4980392156862745" d="M 227.5 504 L 230 504.5 L 227.5 505 L 227.5 504 Z " /><path fill="rgb(255,87,33)" stroke="rgb(255,87,33)" stroke-width="1" opacity="0.4980392156862745" d="M 282.5 504 L 285 504.5 L 282.5 505 L 282.5 504 Z " /><path fill="rgb(255,87,33)" stroke="rgb(255,87,33)" stroke-width="1" opacity="0.4980392156862745" d="M 231.5 505 L 237 506.5 L 234.5 507 L 231.5 506 L 231.5 505 Z " /><path fill="rgb(255,87,33)" stroke="rgb(255,87,33)" stroke-width="1" opacity="0.4980392156862745" d="M 278.5 505 L 281 505.5 L 275.5 507 L 275.5 506 L 278.5 505 Z " /><path fill="rgb(255,87,33)" stroke="rgb(255,87,33)" stroke-width="1" opacity="0.4980392156862745" d="M 238.5 507 L 244 508.5 L 241.5 509 L 238.5 508 L 238.5 507 Z " /><path fill="rgb(255,87,33)" stroke="rgb(255,87,33)" stroke-width="1" opacity="0.4980392156862745" d="M 271.5 507 L 274 507.5 L 268.5 509 L 268.5 508 L 271.5 507 Z " /><path fill="rgb(255,87,33)" stroke="rgb(255,87,33)" stroke-width="1" opacity="0.4980392156862745" d="M 245.5 509 L 248 509.5 L 245.5 510 L 245.5 509 Z " /><path fill="rgb(255,87,33)" stroke="rgb(255,87,33)" stroke-width="1" opacity="0.4980392156862745" d="M 264.5 509 L 267 509.5 L 264.5 510 L 264.5 509 Z " /><path fill="rgb(255,87,33)" stroke="rgb(255,87,33)" stroke-width="1" opacity="0.4980392156862745" d="M 249.5 510 L 255 511.5 L 252.5 512 L 249.5 511 L 249.5 510 Z " /><path fill="rgb(255,87,33)" stroke="rgb(255,87,33)" stroke-width="1" opacity="0.4980392156862745" d="M 260.5 510 L 263 510.5 L 257.5 512 L 257.5 511 L 260.5 510 Z " /><path fill="rgb(0,0,0)" stroke="rgb(0,0,0)" stroke-width="1" opacity="0" d="M 0 0 L 32 0 L 32 10.5 L 33 11.5 L 33 22.5 L 34 23.5 L 36 56.5 L 37 57.5 L 38 78.5 L 39 79.5 L 39 90.5 L 40 91.5 L 43 135.5 L 44 136.5 L 44 146.5 L 45 147.5 L 45 157.5 L 46 158.5 L 46 169.5 L 47 170.5 L 47 180.5 L 48 181.5 L 48 191.5 L 49 192.5 L 49 202.5 L 50 203.5 L 50 214.5 L 51 215.5 L 51 225.5 L 52 226.5 L 52 236.5 L 53 237.5 L 53 248.5 L 54 249.5 L 54 259.5 L 55 260.5 L 55 270.5 L 56 271.5 L 56 281.5 L 57 282.5 L 57 293.5 L 58 294.5 L 58 304.5 L 59 305.5 L 59 315.5 L 60 316.5 L 63 361.5 L 64 362.5 L 64 372.5 L 65 373.5 L 65 383.5 L 66 384.5 L 66 394.5 L 67 395.5 L 67 406.5 L 68 407.5 L 68 417.5 L 69 418.5 L 69 428.5 L 70 429.5 L 71 451.5 L 72 452.5 L 72 460.5 L 73.5 462 L 252 511.5 L 0 512 L 0 0 Z " /><path fill="rgb(0,0,0)" stroke="rgb(0,0,0)" stroke-width="1" opacity="0" d="M 480 0 L 511.5 0 L 512 0.5 L 512 512 L 260 511.5 L 392.5 474 L 399.5 473 L 417.5 467 L 424.5 466 L 438.5 462 L 440 460.5 L 440 451.5 L 441 450.5 L 441 440.5 L 442 439.5 L 442 429.5 L 443 428.5 L 443 417.5 L 444 416.5 L 444 406.5 L 445 405.5 L 445 395.5 L 446 394.5 L 446 384.5 L 447 383.5 L 447 372.5 L 448 371.5 L 448 361.5 L 449 360.5 L 449 350.5 L 450 349.5 L 450 338.5 L 451 337.5 L 451 327.5 L 452 326.5 L 452 316.5 L 453 315.5 L 453 305.5 L 454 304.5 L 454 293.5 L 455 292.5 L 455 282.5 L 456 281.5 L 456 271.5 L 457 270.5 L 457 260.5 L 458 259.5 L 458 248.5 L 459 247.5 L 459 237.5 L 460 236.5 L 460 226.5 L 461 225.5 L 461 214.5 L 462 213.5 L 462 203.5 L 463 202.5 L 463 192.5 L 464 191.5 L 464 181.5 L 465 180.5 L 465 169.5 L 466 168.5 L 466 158.5 L 467 157.5 L 467 147.5 L 468 146.5 L 468 135.5 L 469 134.5 L 470 113.5 L 471 112.5 L 471 102.5 L 472 101.5 L 472 90.5 L 473 89.5 L 475 57.5 L 476 56.5 L 476 45.5 L 477 44.5 L 480 0 Z " /><path fill="rgb(254,87,34)" stroke="rgb(254,87,34)" stroke-width="1" opacity="0.996078431372549" d="M 32.5 0 L 33 2.5 L 32 2.5 L 32.5 0 Z " /><path fill="rgb(254,87,34)" stroke="rgb(254,87,34)" stroke-width="1" opacity="0.996078431372549" d="M 479.5 0 L 480 2.5 L 479 2.5 L 479.5 0 Z " /><path fill="rgb(254,87,34)" stroke="rgb(254,87,34)" stroke-width="1" opacity="0.996078431372549" d="M 33.5 11 L 34 13.5 L 33 13.5 L 33.5 11 Z " /><path fill="rgb(254,87,34)" stroke="rgb(254,87,34)" stroke-width="1" opacity="0.996078431372549" d="M 478.5 11 L 479 13.5 L 478 13.5 L 478.5 11 Z " /><path fill="rgb(254,87,34)" stroke="rgb(254,87,34)" stroke-width="1" opacity="0.996078431372549" d="M 34.5 22 L 35 24.5 L 34 24.5 L 34.5 22 Z " /><path fill="rgb(254,87,34)" stroke="rgb(254,87,34)" stroke-width="1" opacity="0.996078431372549" d="M 477.5 22 L 478 24.5 L 477 24.5 L 477.5 22 Z " /><path fill="rgb(254,87,34)" stroke="rgb(254,87,34)" stroke-width="1" opacity="0.996078431372549" d="M 35.5 34 L 36 36.5 L 35 36.5 L 35.5 34 Z " /><path fill="rgb(254,87,34)" stroke="rgb(254,87,34)" stroke-width="1" opacity="0.996078431372549" d="M 476.5 34 L 477 36.5 L 476 36.5 L 476.5 34 Z " /><path fill="rgb(254,87,34)" stroke="rgb(254,87,34)" stroke-width="1" opacity="0.996078431372549" d="M 36.5 45 L 37 47.5 L 36 47.5 L 36.5 45 Z " /><path fill="rgb(254,87,34)" stroke="rgb(254,87,34)" stroke-width="1" opacity="0.996078431372549" d="M 475.5 45 L 476 47.5 L 475 47.5 L 475.5 45 Z " /><path fill="rgb(254,87,34)" stroke="rgb(254,87,34)" stroke-width="1" opacity="0.996078431372549" d="M 37.5 56 L 38 58.5 L 37 58.5 L 37.5 56 Z " /><path fill="rgb(254,87,34)" stroke="rgb(254,87,34)" stroke-width="1" opacity="0.996078431372549" d="M 474.5 56 L 475 58.5 L 474 58.5 L 474.5 56 Z " /><path fill="rgb(254,87,34)" stroke="rgb(254,87,34)" stroke-width="1" opacity="0.996078431372549" d="M 473.5 67 L 474 69.5 L 473 69.5 L 473.5 67 Z " /><path fill="rgb(254,87,34)" stroke="rgb(254,87,34)" stroke-width="1" opacity="0.996078431372549" d="M 38.5 68 L 39 70.5 L 38 70.5 L 38.5 68 Z " /><path fill="rgb(254,87,34)" stroke="rgb(254,87,34)" stroke-width="1" opacity="0.996078431372549" d="M 39.5 79 L 40 81.5 L 39 81.5 L 39.5 79 Z " /><path fill="rgb(254,87,34)" stroke="rgb(254,87,34)" stroke-width="1" opacity="0.996078431372549" d="M 472.5 79 L 473 81.5 L 472 81.5 L 472.5 79 Z " /><path fill="rgb(254,87,34)" stroke="rgb(254,87,34)" stroke-width="1" opacity="0.996078431372549" d="M 40.5 90 L 41 92.5 L 40 92.5 L 40.5 90 Z " /><path fill="rgb(254,87,34)" stroke="rgb(254,87,34)" stroke-width="1" opacity="0.996078431372549" d="M 471.5 90 L 472 92.5 L 471 92.5 L 471.5 90 Z " /><path fill="rgb(254,87,34)" stroke="rgb(254,87,34)" stroke-width="1" opacity="0.996078431372549" d="M 115.5 94 L 116 98.5 L 115 98.5 L 115.5 94 Z " /><path fill="rgb(254,87,34)" stroke="rgb(254,87,34)" stroke-width="1" opacity="0.996078431372549" d="M 396.5 94 L 397 98.5 L 396 98.5 L 396.5 94 Z " /><path fill="rgb(254,87,34)" stroke="rgb(254,87,34)" stroke-width="1" opacity="0.996078431372549" d="M 41.5 101 L 42 103.5 L 41 103.5 L 41.5 101 Z " /><path fill="rgb(254,87,34)" stroke="rgb(254,87,34)" stroke-width="1" opacity="0.996078431372549" d="M 470.5 101 L 471 103.5 L 470 103.5 L 470.5 101 Z " /><path fill="rgb(254,87,34)" stroke="rgb(254,87,34)" stroke-width="1" opacity="0.996078431372549" d="M 116.5 106 L 117 109.5 L 116 109.5 L 116.5 106 Z " /><path fill="rgb(254,87,34)" stroke="rgb(254,87,34)" stroke-width="1" opacity="0.996078431372549" d="M 395.5 106 L 396 109.5 L 395 109.5 L 395.5 106 Z " /><path fill="rgb(254,87,34)" stroke="rgb(254,87,34)" stroke-width="1" opacity="0.996078431372549" d="M 42.5 113 L 43 115.5 L 42 115.5 L 42.5 113 Z " /><path fill="rgb(254,87,34)" stroke="rgb(254,87,34)" stroke-width="1" opacity="0.996078431372549" d="M 469.5 113 L 470 115.5 L 469 115.5 L 469.5 113 Z " /><path fill="rgb(254,87,34)" stroke="rgb(254,87,34)" stroke-width="1" opacity="0.996078431372549" d="M 117.5 117 L 118 121.5 L 117 121.5 L 117.5 117 Z " /><path fill="rgb(254,87,34)" stroke="rgb(254,87,34)" stroke-width="1" opacity="0.996078431372549" d="M 394.5 117 L 395 120.5 L 394 120.5 L 394.5 117 Z " /><path fill="rgb(254,87,34)" stroke="rgb(254,87,34)" stroke-width="1" opacity="0.996078431372549" d="M 43.5 124 L 44 126.5 L 43 126.5 L 43.5 124 Z " /><path fill="rgb(254,87,34)" stroke="rgb(254,87,34)" stroke-width="1" opacity="0.996078431372549" d="M 468.5 124 L 469 126.5 L 468 126.5 L 468.5 124 Z " /><path fill="rgb(254,87,34)" stroke="rgb(254,87,34)" stroke-width="1" opacity="0.996078431372549" d="M 118.5 128 L 119 132.5 L 118 132.5 L 118.5 128 Z " /><path fill="rgb(254,87,34)" stroke="rgb(254,87,34)" stroke-width="1" opacity="0.996078431372549" d="M 393.5 128 L 394 132.5 L 393 132.5 L 393.5 128 Z " /><path fill="rgb(254,87,34)" stroke="rgb(254,87,34)" stroke-width="1" opacity="0.996078431372549" d="M 44.5 135 L 45 137.5 L 44 137.5 L 44.5 135 Z " /><path fill="rgb(254,87,34)" stroke="rgb(254,87,34)" stroke-width="1" opacity="0.996078431372549" d="M 467.5 135 L 468 137.5 L 467 137.5 L 467.5 135 Z " /><path fill="rgb(254,87,34)" stroke="rgb(254,87,34)" stroke-width="1" opacity="0.996078431372549" d="M 119.5 140 L 120 143.5 L 119 143.5 L 119.5 140 Z " /><path fill="rgb(254,87,34)" stroke="rgb(254,87,34)" stroke-width="1" opacity="0.996078431372549" d="M 392.5 140 L 393 143.5 L 392 143.5 L 392.5 140 Z " /><path fill="rgb(254,87,34)" stroke="rgb(254,87,34)" stroke-width="1" opacity="0.996078431372549" d="M 466.5 146 L 467 148.5 L 466 148.5 L 466.5 146 Z " /><path fill="rgb(254,87,34)" stroke="rgb(254,87,34)" stroke-width="1" opacity="0.996078431372549" d="M 45.5 147 L 46 149.5 L 45 149.5 L 45.5 147 Z " /><path fill="rgb(254,87,34)" stroke="rgb(254,87,34)" stroke-width="1" opacity="0.996078431372549" d="M 120.5 151 L 121 154.5 L 120 154.5 L 120.5 151 Z " /><path fill="rgb(254,87,34)" stroke="rgb(254,87,34)" stroke-width="1" opacity="0.996078431372549" d="M 177.5 154 L 178 157.5 L 177 157.5 L 177.5 154 Z " /><path fill="rgb(254,87,34)" stroke="rgb(254,87,34)" stroke-width="1" opacity="0.996078431372549" d="M 46.5 158 L 47 160.5 L 46 160.5 L 46.5 158 Z " /><path fill="rgb(254,87,34)" stroke="rgb(254,87,34)" stroke-width="1" opacity="0.996078431372549" d="M 465.5 158 L 466 160.5 L 465 160.5 L 465.5 158 Z " /><path fill="rgb(254,87,34)" stroke="rgb(254,87,34)" stroke-width="1" opacity="0.996078431372549" d="M 121.5 162 L 122 166.5 L 121 166.5 L 121.5 162 Z " /><path fill="rgb(254,87,34)" stroke="rgb(254,87,34)" stroke-width="1" opacity="0.996078431372549" d="M 178.5 165 L 179 169.5 L 178 169.5 L 178.5 165 Z " /><path fill="rgb(254,87,34)" stroke="rgb(254,87,34)" stroke-width="1" opacity="0.996078431372549" d="M 47.5 169 L 48 171.5 L 47 171.5 L 47.5 169 Z " /><path fill="rgb(254,87,34)" stroke="rgb(254,87,34)" stroke-width="1" opacity="0.996078431372549" d="M 464.5 169 L 465 171.5 L 464 171.5 L 464.5 169 Z " /><path fill="rgb(254,87,34)" stroke="rgb(254,87,34)" stroke-width="1" opacity="0.996078431372549" d="M 122.5 174 L 123 177.5 L 122 177.5 L 122.5 174 Z " /><path fill="rgb(254,87,34)" stroke="rgb(254,87,34)" stroke-width="1" opacity="0.996078431372549" d="M 179.5 177 L 180 180.5 L 179 180.5 L 179.5 177 Z " /><path fill="rgb(254,87,34)" stroke="rgb(254,87,34)" stroke-width="1" opacity="0.996078431372549" d="M 48.5 180 L 49 182.5 L 48 182.5 L 48.5 180 Z " /><path fill="rgb(254,87,34)" stroke="rgb(254,87,34)" stroke-width="1" opacity="0.996078431372549" d="M 463.5 180 L 464 182.5 L 463 182.5 L 463.5 180 Z " /><path fill="rgb(254,87,34)" stroke="rgb(254,87,34)" stroke-width="1" opacity="0.996078431372549" d="M 123.5 185 L 124 188.5 L 123 188.5 L 123.5 185 Z " /><path fill="rgb(254,87,34)" stroke="rgb(254,87,34)" stroke-width="1" opacity="0.996078431372549" d="M 180.5 188 L 181 192.5 L 180 192.5 L 180.5 188 Z " /><path fill="rgb(254,87,34)" stroke="rgb(254,87,34)" stroke-width="1" opacity="0.996078431372549" d="M 462.5 191 L 463 193.5 L 462 193.5 L 462.5 191 Z " /><path fill="rgb(254,87,34)" stroke="rgb(254,87,34)" stroke-width="1" opacity="0.996078431372549" d="M 49.5 192 L 50 194.5 L 49 194.5 L 49.5 192 Z " /><path fill="rgb(254,87,34)" stroke="rgb(254,87,34)" stroke-width="1" opacity="0.996078431372549" d="M 124.5 196 L 125 200.5 L 124 200.5 L 124.5 196 Z " /><path fill="rgb(254,87,34)" stroke="rgb(254,87,34)" stroke-width="1" opacity="0.996078431372549" d="M 181.5 199 L 182 203.5 L 181 203.5 L 181.5 199 Z " /><path fill="rgb(254,87,34)" stroke="rgb(254,87,34)" stroke-width="1" opacity="0.996078431372549" d="M 50.5 203 L 51 205.5 L 50 205.5 L 50.5 203 Z " /><path fill="rgb(254,87,34)" stroke="rgb(254,87,34)" stroke-width="1" opacity="0.996078431372549" d="M 461.5 203 L 462 205.5 L 461 205.5 L 461.5 203 Z " /><path fill="rgb(254,87,34)" stroke="rgb(254,87,34)" stroke-width="1" opacity="0.996078431372549" d="M 125.5 207 L 126 211.5 L 125 211.5 L 125.5 207 Z " /><path fill="rgb(254,87,34)" stroke="rgb(254,87,34)" stroke-width="1" opacity="0.996078431372549" d="M 182.5 208 L 386.5 208 L 387 211.5 L 386 211.5 L 385.5 209 L 182.5 209 L 182.5 208 Z " /><path fill="rgb(254,87,34)" stroke="rgb(254,87,34)" stroke-width="1" opacity="0.996078431372549" d="M 51.5 214 L 52 216.5 L 51 216.5 L 51.5 214 Z " /><path fill="rgb(254,87,34)" stroke="rgb(254,87,34)" stroke-width="1" opacity="0.996078431372549" d="M 460.5 214 L 461 216.5 L 460 216.5 L 460.5 214 Z " /><path fill="rgb(254,87,34)" stroke="rgb(254,87,34)" stroke-width="1" opacity="0.996078431372549" d="M 126.5 219 L 127 222.5 L 126 222.5 L 126.5 219 Z " /><path fill="rgb(254,87,34)" stroke="rgb(254,87,34)" stroke-width="1" opacity="0.996078431372549" d="M 385.5 219 L 386 222.5 L 385 222.5 L 385.5 219 Z " /><path fill="rgb(254,87,34)" stroke="rgb(254,87,34)" stroke-width="1" opacity="0.996078431372549" d="M 459.5 225 L 460 227.5 L 459 227.5 L 459.5 225 Z " /><path fill="rgb(254,87,34)" stroke="rgb(254,87,34)" stroke-width="1" opacity="0.996078431372549" d="M 52.5 226 L 53 228.5 L 52 228.5 L 52.5 226 Z " /><path fill="rgb(254,87,34)" stroke="rgb(254,87,34)" stroke-width="1" opacity="0.996078431372549" d="M 127.5 230 L 128 233.5 L 127 233.5 L 127.5 230 Z " /><path fill="rgb(254,87,34)" stroke="rgb(254,87,34)" stroke-width="1" opacity="0.996078431372549" d="M 384.5 230 L 385 234.5 L 384 234.5 L 384.5 230 Z " /><path fill="rgb(254,87,34)" stroke="rgb(254,87,34)" stroke-width="1" opacity="0.996078431372549" d="M 53.5 237 L 54 239.5 L 53 239.5 L 53.5 237 Z " /><path fill="rgb(254,87,34)" stroke="rgb(254,87,34)" stroke-width="1" opacity="0.996078431372549" d="M 458.5 237 L 459 239.5 L 458 239.5 L 458.5 237 Z " /><path fill="rgb(254,87,34)" stroke="rgb(254,87,34)" stroke-width="1" opacity="0.996078431372549" d="M 128.5 241 L 129 245.5 L 128 245.5 L 128.5 241 Z " /><path fill="rgb(254,87,34)" stroke="rgb(254,87,34)" stroke-width="1" opacity="0.996078431372549" d="M 383.5 241 L 384 245.5 L 383 245.5 L 383.5 241 Z " /><path fill="rgb(254,87,34)" stroke="rgb(254,87,34)" stroke-width="1" opacity="0.996078431372549" d="M 54.5 248 L 55 250.5 L 54 250.5 L 54.5 248 Z " /><path fill="rgb(254,87,34)" stroke="rgb(254,87,34)" stroke-width="1" opacity="0.996078431372549" d="M 457.5 248 L 458 250.5 L 457 250.5 L 457.5 248 Z " /><path fill="rgb(254,87,34)" stroke="rgb(254,87,34)" stroke-width="1" opacity="0.996078431372549" d="M 129.5 252 L 130 256.5 L 129 256.5 L 129.5 252 Z " /><path fill="rgb(254,87,34)" stroke="rgb(254,87,34)" stroke-width="1" opacity="0.996078431372549" d="M 382.5 253 L 383 256.5 L 382 256.5 L 382.5 253 Z " /><path fill="rgb(254,87,34)" stroke="rgb(254,87,34)" stroke-width="1" opacity="0.996078431372549" d="M 55.5 259 L 56 262.5 L 55 262.5 L 55.5 259 Z " /><path fill="rgb(254,87,34)" stroke="rgb(254,87,34)" stroke-width="1" opacity="0.996078431372549" d="M 456.5 259 L 457 261.5 L 456 261.5 L 456.5 259 Z " /><path fill="rgb(254,87,34)" stroke="rgb(254,87,34)" stroke-width="1" opacity="0.996078431372549" d="M 130.5 264 L 131.5 265 L 325 265.5 L 131.5 266 L 130.5 264 Z " /><path fill="rgb(254,87,34)" stroke="rgb(254,87,34)" stroke-width="1" opacity="0.996078431372549" d="M 381.5 264 L 382 267.5 L 381 267.5 L 381.5 264 Z " /><path fill="rgb(254,87,34)" stroke="rgb(254,87,34)" stroke-width="1" opacity="0.996078431372549" d="M 324.5 267 L 325 271.5 L 324 271.5 L 324.5 267 Z " /><path fill="rgb(254,87,34)" stroke="rgb(254,87,34)" stroke-width="1" opacity="0.996078431372549" d="M 455.5 270 L 456 272.5 L 455 272.5 L 455.5 270 Z " /><path fill="rgb(254,87,34)" stroke="rgb(254,87,34)" stroke-width="1" opacity="0.996078431372549" d="M 56.5 271 L 57 273.5 L 56 273.5 L 56.5 271 Z " /><path fill="rgb(254,87,34)" stroke="rgb(254,87,34)" stroke-width="1" opacity="0.996078431372549" d="M 380.5 275 L 381 279.5 L 380 279.5 L 380.5 275 Z " /><path fill="rgb(254,87,34)" stroke="rgb(254,87,34)" stroke-width="1" opacity="0.996078431372549" d="M 323.5 279 L 324 282.5 L 323 282.5 L 323.5 279 Z " /><path fill="rgb(254,87,34)" stroke="rgb(254,87,34)" stroke-width="1" opacity="0.996078431372549" d="M 57.5 282 L 58 284.5 L 57 284.5 L 57.5 282 Z " /><path fill="rgb(254,87,34)" stroke="rgb(254,87,34)" stroke-width="1" opacity="0.996078431372549" d="M 454.5 282 L 455 284.5 L 454 284.5 L 454.5 282 Z " /><path fill="rgb(254,87,34)" stroke="rgb(254,87,34)" stroke-width="1" opacity="0.996078431372549" d="M 379.5 286 L 380 290.5 L 379 290.5 L 379.5 286 Z " /><path fill="rgb(254,87,34)" stroke="rgb(254,87,34)" stroke-width="1" opacity="0.996078431372549" d="M 322.5 290 L 323 293.5 L 322 293.5 L 322.5 290 Z " /><path fill="rgb(254,87,34)" stroke="rgb(254,87,34)" stroke-width="1" opacity="0.996078431372549" d="M 189.5 291 L 190 293.5 L 189 293.5 L 189.5 291 Z " /><path fill="rgb(254,87,34)" stroke="rgb(254,87,34)" stroke-width="1" opacity="0.996078431372549" d="M 58.5 293 L 59 295.5 L 58 295.5 L 58.5 293 Z " /><path fill="rgb(254,87,34)" stroke="rgb(254,87,34)" stroke-width="1" opacity="0.996078431372549" d="M 453.5 293 L 454 295.5 L 453 295.5 L 453.5 293 Z " /><path fill="rgb(254,87,34)" stroke="rgb(254,87,34)" stroke-width="1" opacity="0.996078431372549" d="M 133.5 298 L 134 301.5 L 133 301.5 L 133.5 298 Z " /><path fill="rgb(254,87,34)" stroke="rgb(254,87,34)" stroke-width="1" opacity="0.996078431372549" d="M 378.5 298 L 379 301.5 L 378 301.5 L 378.5 298 Z " /><path fill="rgb(254,87,34)" stroke="rgb(254,87,34)" stroke-width="1" opacity="0.996078431372549" d="M 190.5 301 L 191 304.5 L 190 304.5 L 190.5 301 Z " /><path fill="rgb(254,87,34)" stroke="rgb(254,87,34)" stroke-width="1" opacity="0.996078431372549" d="M 321.5 301 L 322 304.5 L 321 304.5 L 321.5 301 Z " /><path fill="rgb(254,87,34)" stroke="rgb(254,87,34)" stroke-width="1" opacity="0.996078431372549" d="M 452.5 304 L 453 306.5 L 452 306.5 L 452.5 304 Z " /><path fill="rgb(254,87,34)" stroke="rgb(254,87,34)" stroke-width="1" opacity="0.996078431372549" d="M 59.5 305 L 60 307.5 L 59 307.5 L 59.5 305 Z " /><path fill="rgb(254,87,34)" stroke="rgb(254,87,34)" stroke-width="1" opacity="0.996078431372549" d="M 134.5 309 L 135 313.5 L 134 313.5 L 134.5 309 Z " /><path fill="rgb(254,87,34)" stroke="rgb(254,87,34)" stroke-width="1" opacity="0.996078431372549" d="M 377.5 309 L 378 312.5 L 377 312.5 L 377.5 309 Z " /><path fill="rgb(254,87,34)" stroke="rgb(254,87,34)" stroke-width="1" opacity="0.996078431372549" d="M 191.5 312 L 192 316.5 L 191 316.5 L 191.5 312 Z " /><path fill="rgb(254,87,34)" stroke="rgb(254,87,34)" stroke-width="1" opacity="0.996078431372549" d="M 320.5 312 L 321 316.5 L 320 316.5 L 320.5 312 Z " /><path fill="rgb(254,87,34)" stroke="rgb(254,87,34)" stroke-width="1" opacity="0.996078431372549" d="M 451.5 315 L 452 318.5 L 451 318.5 L 451.5 315 Z " /><path fill="rgb(254,87,34)" stroke="rgb(254,87,34)" stroke-width="1" opacity="0.996078431372549" d="M 60.5 316 L 61 318.5 L 60 318.5 L 60.5 316 Z " /><path fill="rgb(254,87,34)" stroke="rgb(254,87,34)" stroke-width="1" opacity="0.996078431372549" d="M 135.5 320 L 136 324.5 L 135 324.5 L 135.5 320 Z " /><path fill="rgb(254,87,34)" stroke="rgb(254,87,34)" stroke-width="1" opacity="0.996078431372549" d="M 376.5 320 L 377 324.5 L 376 324.5 L 376.5 320 Z " /><path fill="rgb(254,87,34)" stroke="rgb(254,87,34)" stroke-width="1" opacity="0.996078431372549" d="M 192.5 323 L 193 327.5 L 192 327.5 L 192.5 323 Z " /><path fill="rgb(254,87,34)" stroke="rgb(254,87,34)" stroke-width="1" opacity="0.996078431372549" d="M 319.5 323 L 320 327.5 L 319 327.5 L 319.5 323 Z " /><path fill="rgb(254,87,34)" stroke="rgb(254,87,34)" stroke-width="1" opacity="0.996078431372549" d="M 61.5 327 L 62 329.5 L 61 329.5 L 61.5 327 Z " /><path fill="rgb(254,87,34)" stroke="rgb(254,87,34)" stroke-width="1" opacity="0.996078431372549" d="M 450.5 327 L 451 329.5 L 450 329.5 L 450.5 327 Z " /><path fill="rgb(254,87,34)" stroke="rgb(254,87,34)" stroke-width="1" opacity="0.996078431372549" d="M 375.5 331 L 376 335.5 L 375 335.5 L 375.5 331 Z " /><path fill="rgb(254,87,34)" stroke="rgb(254,87,34)" stroke-width="1" opacity="0.996078431372549" d="M 136.5 332 L 137 335.5 L 136 335.5 L 136.5 332 Z " /><path fill="rgb(254,87,34)" stroke="rgb(254,87,34)" stroke-width="1" opacity="0.996078431372549" d="M 193.5 335 L 195 338.5 L 193 337.5 L 193.5 335 Z " /><path fill="rgb(254,87,34)" stroke="rgb(254,87,34)" stroke-width="1" opacity="0.996078431372549" d="M 318.5 335 L 319 337.5 L 317 338.5 L 318.5 335 Z " /><path fill="rgb(254,87,34)" stroke="rgb(254,87,34)" stroke-width="1" opacity="0.996078431372549" d="M 449.5 338 L 450 340.5 L 449 340.5 L 449.5 338 Z " /><path fill="rgb(254,87,34)" stroke="rgb(254,87,34)" stroke-width="1" opacity="0.996078431372549" d="M 62.5 339 L 63 341.5 L 62 341.5 L 62.5 339 Z " /><path fill="rgb(254,87,34)" stroke="rgb(254,87,34)" stroke-width="1" opacity="0.996078431372549" d="M 137.5 343 L 138 346.5 L 137 346.5 L 137.5 343 Z " /><path fill="rgb(254,87,34)" stroke="rgb(254,87,34)" stroke-width="1" opacity="0.996078431372549" d="M 374.5 343 L 375 346.5 L 374 346.5 L 374.5 343 Z " /><path fill="rgb(254,87,34)" stroke="rgb(254,87,34)" stroke-width="1" opacity="0.996078431372549" d="M 448.5 349 L 449 351.5 L 448 351.5 L 448.5 349 Z " /><path fill="rgb(254,87,34)" stroke="rgb(254,87,34)" stroke-width="1" opacity="0.996078431372549" d="M 63.5 350 L 64 352.5 L 63 352.5 L 63.5 350 Z " /><path fill="rgb(254,87,34)" stroke="rgb(254,87,34)" stroke-width="1" opacity="0.996078431372549" d="M 138.5 354 L 139 358.5 L 138 358.5 L 138.5 354 Z " /><path fill="rgb(254,87,34)" stroke="rgb(254,87,34)" stroke-width="1" opacity="0.996078431372549" d="M 373.5 354 L 374 357.5 L 373 357.5 L 373.5 354 Z " /><path fill="rgb(254,87,34)" stroke="rgb(254,87,34)" stroke-width="1" opacity="0.996078431372549" d="M 64.5 361 L 65 363.5 L 64 363.5 L 64.5 361 Z " /><path fill="rgb(254,87,34)" stroke="rgb(254,87,34)" stroke-width="1" opacity="0.996078431372549" d="M 447.5 361 L 448 363.5 L 447 363.5 L 447.5 361 Z " /><path fill="rgb(254,87,34)" stroke="rgb(254,87,34)" stroke-width="1" opacity="0.996078431372549" d="M 372.5 365 L 373 369.5 L 372 369.5 L 372.5 365 Z " /><path fill="rgb(254,87,34)" stroke="rgb(254,87,34)" stroke-width="1" opacity="0.996078431372549" d="M 139.5 366 L 140 369.5 L 139 369.5 L 139.5 366 Z " /><path fill="rgb(254,87,34)" stroke="rgb(254,87,34)" stroke-width="1" opacity="0.996078431372549" d="M 65.5 372 L 66 374.5 L 65 374.5 L 65.5 372 Z " /><path fill="rgb(254,87,34)" stroke="rgb(254,87,34)" stroke-width="1" opacity="0.996078431372549" d="M 446.5 372 L 447 374.5 L 446 374.5 L 446.5 372 Z " /><path fill="rgb(254,87,34)" stroke="rgb(254,87,34)" stroke-width="1" opacity="0.996078431372549" d="M 140.5 377 L 141 380.5 L 140 380.5 L 140.5 377 Z " /><path fill="rgb(254,87,34)" stroke="rgb(254,87,34)" stroke-width="1" opacity="0.996078431372549" d="M 371.5 377 L 372 380.5 L 371 380.5 L 371.5 377 Z " /><path fill="rgb(254,87,34)" stroke="rgb(254,87,34)" stroke-width="1" opacity="0.996078431372549" d="M 445.5 383 L 446 385.5 L 445 385.5 L 445.5 383 Z " /><path fill="rgb(254,87,34)" stroke="rgb(254,87,34)" stroke-width="1" opacity="0.996078431372549" d="M 66.5 384 L 67 386.5 L 66 386.5 L 66.5 384 Z " /><path fill="rgb(254,87,34)" stroke="rgb(254,87,34)" stroke-width="1" opacity="0.996078431372549" d="M 444.5 394 L 445 396.5 L 444 396.5 L 444.5 394 Z " /><path fill="rgb(254,87,34)" stroke="rgb(254,87,34)" stroke-width="1" opacity="0.996078431372549" d="M 67.5 395 L 68 397.5 L 67 397.5 L 67.5 395 Z " /><path fill="rgb(254,87,34)" stroke="rgb(254,87,34)" stroke-width="1" opacity="0.996078431372549" d="M 68.5 406 L 69 408.5 L 68 408.5 L 68.5 406 Z " /><path fill="rgb(254,87,34)" stroke="rgb(254,87,34)" stroke-width="1" opacity="0.996078431372549" d="M 443.5 406 L 444 408.5 L 443 408.5 L 443.5 406 Z " /><path fill="rgb(254,87,34)" stroke="rgb(254,87,34)" stroke-width="1" opacity="0.996078431372549" d="M 442.5 417 L 443 419.5 L 442 419.5 L 442.5 417 Z " /><path fill="rgb(254,87,34)" stroke="rgb(254,87,34)" stroke-width="1" opacity="0.996078431372549" d="M 69.5 418 L 70 420.5 L 69 420.5 L 69.5 418 Z " /><path fill="rgb(254,87,34)" stroke="rgb(254,87,34)" stroke-width="1" opacity="0.996078431372549" d="M 441.5 428 L 442 430.5 L 441 430.5 L 441.5 428 Z " /><path fill="rgb(254,87,34)" stroke="rgb(254,87,34)" stroke-width="1" opacity="0.996078431372549" d="M 70.5 429 L 71 431.5 L 70 431.5 L 70.5 429 Z " /><path fill="rgb(254,87,34)" stroke="rgb(254,87,34)" stroke-width="1" opacity="0.996078431372549" d="M 71.5 440 L 72 442.5 L 71 442.5 L 71.5 440 Z " /><path fill="rgb(254,87,34)" stroke="rgb(254,87,34)" stroke-width="1" opacity="0.996078431372549" d="M 440.5 440 L 441 442.5 L 440 442.5 L 440.5 440 Z " /><path fill="rgb(254,87,34)" stroke="rgb(254,87,34)" stroke-width="1" opacity="0.996078431372549" d="M 72.5 451 L 73 453.5 L 72 453.5 L 72.5 451 Z " /><path fill="rgb(254,87,34)" stroke="rgb(254,87,34)" stroke-width="1" opacity="0.996078431372549" d="M 439.5 451 L 440 453.5 L 439 453.5 L 439.5 451 Z " /><path fill="rgb(255,87,34)" stroke="rgb(255,87,34)" stroke-width="1" opacity="1" d="M 33 0 L 478.5 0 L 479 0.5 L 479 10.5 L 478 11.5 L 477 33.5 L 476 34.5 L 474 66.5 L 473 67.5 L 473 78.5 L 472 79.5 L 471 100.5 L 470 101.5 L 470 112.5 L 469 113.5 L 468 134.5 L 467 135.5 L 467 145.5 L 466 146.5 L 466 157.5 L 465 158.5 L 465 168.5 L 464 169.5 L 464 179.5 L 463 180.5 L 463 190.5 L 462 191.5 L 462 202.5 L 461 203.5 L 461 213.5 L 460 214.5 L 460 224.5 L 459 225.5 L 459 236.5 L 458 237.5 L 458 247.5 L 457 248.5 L 457 258.5 L 456 259.5 L 456 269.5 L 455 270.5 L 452 314.5 L 451 315.5 L 451 326.5 L 450 327.5 L 448 360.5 L 447 361.5 L 447 371.5 L 446 372.5 L 446 382.5 L 445 383.5 L 445 393.5 L 444 394.5 L 444 405.5 L 443 406.5 L 443 416.5 L 442 417.5 L 442 427.5 L 441 428.5 L 440 450.5 L 439 451.5 L 439 459.5 L 437.5 461 L 262.5 510 L 253.5 511 L 84.5 463 L 77.5 462 L 73 459.5 L 33 0 Z M 115 94 L 116 100 L 116 110 L 117 111 L 117 122 L 118 123 L 118 133 L 119 134 L 119 144 L 120 145 L 120 155 L 121 156 L 121 167 L 122 168 L 122 178 L 123 179 L 123 189 L 124 190 L 124 201 L 125 202 L 125 212 L 126 213 L 126 223 L 127 224 L 130 265 L 132 266 L 325 267 L 324 268 L 324 279 L 323 280 L 323 290 L 322 291 L 322 301 L 321 302 L 321 312 L 320 313 L 320 323 L 319 324 Q 320 332 318 338 L 317 339 L 258 355 L 196 339 L 193 335 L 193 324 L 192 323 L 192 313 L 191 312 L 191 302 L 190 301 L 190 292 L 190 291 L 133 291 L 136 336 L 137 337 L 137 347 L 138 348 L 138 359 L 139 360 L 139 370 L 140 371 L 140 381 L 141 383 L 238 410 L 245 411 L 256 415 L 371 383 L 372 381 L 373 359 L 374 358 L 374 348 L 375 347 L 375 337 L 376 336 L 376 326 L 377 325 L 377 314 L 378 313 L 378 303 L 379 302 L 379 292 L 380 291 L 380 281 L 381 280 L 381 269 L 382 268 L 382 258 L 383 257 L 383 247 L 384 246 L 384 236 L 385 235 L 386 213 L 387 212 L 387 208 L 182 208 L 180 178 L 179 177 L 179 166 L 178 165 L 178 155 L 177 154 L 178 151 L 392 151 L 393 134 L 394 133 L 394 122 L 395 121 L 395 111 L 396 110 L 396 100 L 397 99 Q 397 94 397 94 L 115 94 Z " /></svg>