<svg width="512" height="512" version="1.1" xmlns="http://www.w3.org/2000/svg" desc="Created with imagetracer.js version 1.2.6" ><path fill="rgb(5,4,0)" stroke="rgb(5,4,0)" stroke-width="1" opacity="1" d="M 384.5 232 L 405.5 233 L 423.5 238 Q 440.6 245.4 451 259.5 L 458 270.5 L 420.5 295 Q 416.2 284.8 407.5 279 L 398.5 275 L 386.5 274 Q 374.5 276 369 284.5 Q 365.3 290.3 367 301.5 Q 370.3 310.3 377.5 315 L 431.5 340 L 455 357 L 464 369.5 L 470 383.5 L 472 394.5 L 472 414.5 L 470 424.5 L 464 438.5 L 449.5 455 Q 437.6 464.6 420.5 469 L 410.5 471 L 402.5 471 L 401.5 472 L 382.5 472 L 381.5 471 L 363.5 469 L 348.5 464 Q 331.3 456.3 319 443.5 L 307 427.5 L 305 422 L 343.5 400 Q 350 411 359.5 419 L 377.5 428 L 382.5 429 L 399.5 429 L 407.5 427 L 419 419.5 L 424 409.5 L 424 400.5 Q 421.8 392.8 416.5 388 L 395.5 376 Q 373.7 368.8 355.5 358 Q 343.1 350.9 334 340.5 Q 325.1 330.4 321 315.5 L 320 303.5 L 319 302.5 L 319 290.5 L 323 272.5 Q 328.4 258.9 338.5 250 L 357.5 238 L 370.5 234 L 383.5 233 L 384.5 232 Z " /><path fill="rgb(5,4,0)" stroke="rgb(5,4,0)" stroke-width="1" opacity="1" d="M 231 235 L 278.5 235 L 279 235.5 L 279 407.5 L 278 408.5 L 277 421.5 L 272 436.5 Q 266.8 447.3 258.5 455 Q 248.2 464.7 232.5 469 L 223.5 471 L 215.5 471 L 214.5 472 L 199.5 472 L 182.5 469 L 163.5 461 Q 151.9 454.1 144 443.5 Q 137.8 436.5 135 427 L 173.5 404 Q 179 416 188.5 424 L 200.5 429 L 210.5 429 L 221.5 425 L 226 420.5 L 229 414.5 L 231 403.5 L 231 235 Z " /><path fill="rgb(254,222,0)" stroke="rgb(254,222,0)" stroke-width="1" opacity="1" d="M 378.5 232 L 384 232.5 L 378.5 233 L 378.5 232 Z " /><path fill="rgb(254,222,0)" stroke="rgb(254,222,0)" stroke-width="1" opacity="1" d="M 396.5 232 L 402 232.5 L 396.5 233 L 396.5 232 Z " /><path fill="rgb(254,222,0)" stroke="rgb(254,222,0)" stroke-width="1" opacity="1" d="M 372.5 233 L 375 233.5 L 372.5 234 L 372.5 233 Z " /><path fill="rgb(254,222,0)" stroke="rgb(254,222,0)" stroke-width="1" opacity="1" d="M 406.5 233 L 409 233.5 L 406.5 234 L 406.5 233 Z " /><path fill="rgb(254,222,0)" stroke="rgb(254,222,0)" stroke-width="1" opacity="1" d="M 367.5 234 L 370 234.5 L 367.5 235 L 367.5 234 Z " /><path fill="rgb(254,222,0)" stroke="rgb(254,222,0)" stroke-width="1" opacity="1" d="M 411.5 234 L 414 234.5 L 411.5 235 L 411.5 234 Z " /><path fill="rgb(254,222,0)" stroke="rgb(254,222,0)" stroke-width="1" opacity="1" d="M 230.5 235 L 231 403.5 L 230 403.5 L 230.5 235 Z " /><path fill="rgb(254,222,0)" stroke="rgb(254,222,0)" stroke-width="1" opacity="1" d="M 426.5 239 L 431 241.5 L 429.5 241 Q 425.8 240.7 426.5 239 Z " /><path fill="rgb(254,222,0)" stroke="rgb(254,222,0)" stroke-width="1" opacity="1" d="M 348.5 242 L 347.5 244 L 344.5 246 L 346.5 243 L 348.5 242 Z " /><path fill="rgb(254,222,0)" stroke="rgb(254,222,0)" stroke-width="1" opacity="1" d="M 432.5 242 L 437 245.5 L 434.5 244 L 432.5 242 Z " /><path fill="rgb(254,222,0)" stroke="rgb(254,222,0)" stroke-width="1" opacity="1" d="M 342.5 246 L 339.5 250 L 342.5 246 Z " /><path fill="rgb(254,222,0)" stroke="rgb(254,222,0)" stroke-width="1" opacity="1" d="M 438.5 246 L 450.5 259 L 438.5 246 Z " /><path fill="rgb(254,222,0)" stroke="rgb(254,222,0)" stroke-width="1" opacity="1" d="M 337.5 250 L 335.5 253 L 337.5 250 Z " /><path fill="rgb(254,222,0)" stroke="rgb(254,222,0)" stroke-width="1" opacity="1" d="M 333.5 255 L 330.5 259 L 333.5 255 Z " /><path fill="rgb(254,222,0)" stroke="rgb(254,222,0)" stroke-width="1" opacity="1" d="M 329.5 260 L 328.5 262 L 329.5 260 Z " /><path fill="rgb(254,222,0)" stroke="rgb(254,222,0)" stroke-width="1" opacity="1" d="M 451.5 260 L 457 267.5 L 455 266.5 L 451.5 260 Z " /><path fill="rgb(254,222,0)" stroke="rgb(254,222,0)" stroke-width="1" opacity="1" d="M 457.5 269 Q 461 271 456.5 273 L 457.5 269 Z " /><path fill="rgb(254,222,0)" stroke="rgb(254,222,0)" stroke-width="1" opacity="1" d="M 454.5 273 L 453.5 275 L 448.5 278 L 449.5 276 L 454.5 273 Z " /><path fill="rgb(254,222,0)" stroke="rgb(254,222,0)" stroke-width="1" opacity="1" d="M 386.5 274 L 393 274.5 L 386.5 275 L 386.5 274 Z " /><path fill="rgb(254,222,0)" stroke="rgb(254,222,0)" stroke-width="1" opacity="1" d="M 381.5 275 L 384 275.5 L 381.5 276 L 381.5 275 Z " /><path fill="rgb(254,222,0)" stroke="rgb(254,222,0)" stroke-width="1" opacity="1" d="M 321.5 276 L 322 278.5 L 321 278.5 L 321.5 276 Z " /><path fill="rgb(254,222,0)" stroke="rgb(254,222,0)" stroke-width="1" opacity="1" d="M 403.5 277 L 406 278.5 L 404.5 278 L 403.5 277 Z " /><path fill="rgb(254,222,0)" stroke="rgb(254,222,0)" stroke-width="1" opacity="1" d="M 375.5 278 L 370 284.5 L 368.5 288 L 368 286.5 L 375.5 278 Z " /><path fill="rgb(254,222,0)" stroke="rgb(254,222,0)" stroke-width="1" opacity="1" d="M 446.5 278 L 445.5 280 L 446.5 278 Z " /><path fill="rgb(254,222,0)" stroke="rgb(254,222,0)" stroke-width="1" opacity="1" d="M 407.5 279 L 409.5 282 L 407.5 279 Z " /><path fill="rgb(254,222,0)" stroke="rgb(254,222,0)" stroke-width="1" opacity="1" d="M 320.5 280 L 321 282.5 L 320 282.5 L 320.5 280 Z " /><path fill="rgb(254,222,0)" stroke="rgb(254,222,0)" stroke-width="1" opacity="1" d="M 443.5 280 L 442.5 282 L 443.5 280 Z " /><path fill="rgb(254,222,0)" stroke="rgb(254,222,0)" stroke-width="1" opacity="1" d="M 440.5 282 L 439.5 284 L 434.5 287 L 435.5 285 L 440.5 282 Z " /><path fill="rgb(254,222,0)" stroke="rgb(254,222,0)" stroke-width="1" opacity="1" d="M 319.5 285 L 320 289.5 L 319 289.5 L 319.5 285 Z " /><path fill="rgb(254,222,0)" stroke="rgb(254,222,0)" stroke-width="1" opacity="1" d="M 413.5 285 L 420 293.5 L 418 292.5 L 413.5 285 Z " /><path fill="rgb(254,222,0)" stroke="rgb(254,222,0)" stroke-width="1" opacity="1" d="M 432.5 287 L 431.5 289 L 432.5 287 Z " /><path fill="rgb(254,222,0)" stroke="rgb(254,222,0)" stroke-width="1" opacity="1" d="M 429.5 289 L 428.5 291 L 429.5 289 Z " /><path fill="rgb(254,222,0)" stroke="rgb(254,222,0)" stroke-width="1" opacity="1" d="M 426.5 291 L 425.5 293 L 421.5 295 L 421.5 294 L 426.5 291 Z " /><path fill="rgb(254,222,0)" stroke="rgb(254,222,0)" stroke-width="1" opacity="1" d="M 367.5 299 L 368 301.5 L 367 301.5 L 367.5 299 Z " /><path fill="rgb(254,222,0)" stroke="rgb(254,222,0)" stroke-width="1" opacity="1" d="M 319.5 303 L 320 307.5 L 319 307.5 L 319.5 303 Z " /><path fill="rgb(254,222,0)" stroke="rgb(254,222,0)" stroke-width="1" opacity="1" d="M 368.5 303 L 370 305.5 L 368 304.5 L 368.5 303 Z " /><path fill="rgb(254,222,0)" stroke="rgb(254,222,0)" stroke-width="1" opacity="1" d="M 370.5 307 L 380 315.5 L 378.5 315 L 370.5 307 Z " /><path fill="rgb(254,222,0)" stroke="rgb(254,222,0)" stroke-width="1" opacity="1" d="M 381.5 316 L 392 321.5 L 390.5 322 L 382.5 318 L 381.5 316 Z " /><path fill="rgb(254,222,0)" stroke="rgb(254,222,0)" stroke-width="1" opacity="1" d="M 323.5 322 L 325 325.5 L 324 325.5 L 323.5 322 Z " /><path fill="rgb(254,222,0)" stroke="rgb(254,222,0)" stroke-width="1" opacity="1" d="M 411.5 330 L 415 331.5 L 413.5 332 L 411.5 330 Z " /><path fill="rgb(254,222,0)" stroke="rgb(254,222,0)" stroke-width="1" opacity="1" d="M 327.5 331 L 334 339.5 L 330 336.5 L 327.5 331 Z " /><path fill="rgb(254,222,0)" stroke="rgb(254,222,0)" stroke-width="1" opacity="1" d="M 432.5 340 L 433.5 342 L 432.5 340 Z " /><path fill="rgb(254,222,0)" stroke="rgb(254,222,0)" stroke-width="1" opacity="1" d="M 334.5 341 L 340.5 348 L 334.5 341 Z " /><path fill="rgb(254,222,0)" stroke="rgb(254,222,0)" stroke-width="1" opacity="1" d="M 437.5 343 L 438.5 345 L 437.5 343 Z " /><path fill="rgb(254,222,0)" stroke="rgb(254,222,0)" stroke-width="1" opacity="1" d="M 440.5 345 L 441.5 347 L 440.5 345 Z " /><path fill="rgb(254,222,0)" stroke="rgb(254,222,0)" stroke-width="1" opacity="1" d="M 443.5 347 L 445.5 350 L 443.5 347 Z " /><path fill="rgb(254,222,0)" stroke="rgb(254,222,0)" stroke-width="1" opacity="1" d="M 342.5 348 L 345.5 352 L 342.5 348 Z " /><path fill="rgb(254,222,0)" stroke="rgb(254,222,0)" stroke-width="1" opacity="1" d="M 447.5 350 L 453.5 357 L 447.5 350 Z " /><path fill="rgb(254,222,0)" stroke="rgb(254,222,0)" stroke-width="1" opacity="1" d="M 347.5 352 L 355 357.5 L 353.5 357 Q 348.5 355.5 347.5 352 Z " /><path fill="rgb(254,222,0)" stroke="rgb(254,222,0)" stroke-width="1" opacity="1" d="M 356.5 358 L 364 362.5 L 362.5 362 Q 356.9 361.2 356.5 358 Z " /><path fill="rgb(254,222,0)" stroke="rgb(254,222,0)" stroke-width="1" opacity="1" d="M 455.5 358 L 459.5 363 L 455.5 358 Z " /><path fill="rgb(254,222,0)" stroke="rgb(254,222,0)" stroke-width="1" opacity="1" d="M 460.5 364 L 464 368.5 L 462 367.5 L 460.5 364 Z " /><path fill="rgb(254,222,0)" stroke="rgb(254,222,0)" stroke-width="1" opacity="1" d="M 369.5 365 L 375 367.5 L 373.5 368 L 369.5 366 L 369.5 365 Z " /><path fill="rgb(254,222,0)" stroke="rgb(254,222,0)" stroke-width="1" opacity="1" d="M 378.5 369 L 382 370.5 L 380.5 371 L 378.5 369 Z " /><path fill="rgb(254,222,0)" stroke="rgb(254,222,0)" stroke-width="1" opacity="1" d="M 464.5 370 L 467 374.5 L 466 374.5 L 464.5 370 Z " /><path fill="rgb(254,222,0)" stroke="rgb(254,222,0)" stroke-width="1" opacity="1" d="M 385.5 372 L 389 373.5 L 387.5 374 L 385.5 372 Z " /><path fill="rgb(254,222,0)" stroke="rgb(254,222,0)" stroke-width="1" opacity="1" d="M 394.5 376 L 398 377.5 L 396.5 378 L 394.5 376 Z " /><path fill="rgb(254,222,0)" stroke="rgb(254,222,0)" stroke-width="1" opacity="1" d="M 407.5 382 L 411 384.5 L 409.5 384 L 407.5 382 Z " /><path fill="rgb(254,222,0)" stroke="rgb(254,222,0)" stroke-width="1" opacity="1" d="M 412.5 385 L 414.5 388 L 412.5 385 Z " /><path fill="rgb(254,222,0)" stroke="rgb(254,222,0)" stroke-width="1" opacity="1" d="M 416.5 388 L 418.5 391 L 416.5 388 Z " /><path fill="rgb(254,222,0)" stroke="rgb(254,222,0)" stroke-width="1" opacity="1" d="M 471.5 390 L 472 393.5 L 471 393.5 L 471.5 390 Z " /><path fill="rgb(254,222,0)" stroke="rgb(254,222,0)" stroke-width="1" opacity="1" d="M 419.5 392 L 420.5 394 L 419.5 392 Z " /><path fill="rgb(254,222,0)" stroke="rgb(254,222,0)" stroke-width="1" opacity="1" d="M 472.5 398 L 473 410.5 L 472 410.5 L 472.5 398 Z " /><path fill="rgb(254,222,0)" stroke="rgb(254,222,0)" stroke-width="1" opacity="1" d="M 344.5 400 L 345.5 402 L 344.5 400 Z " /><path fill="rgb(254,222,0)" stroke="rgb(254,222,0)" stroke-width="1" opacity="1" d="M 423.5 400 L 424 403.5 L 423 403.5 L 423.5 400 Z " /><path fill="rgb(254,222,0)" stroke="rgb(254,222,0)" stroke-width="1" opacity="1" d="M 340.5 401 L 339.5 403 L 337.5 404 L 338.5 402 L 340.5 401 Z " /><path fill="rgb(254,222,0)" stroke="rgb(254,222,0)" stroke-width="1" opacity="1" d="M 346.5 403 L 347.5 405 L 346.5 403 Z " /><path fill="rgb(254,222,0)" stroke="rgb(254,222,0)" stroke-width="1" opacity="1" d="M 172.5 404 L 171.5 406 L 172.5 404 Z " /><path fill="rgb(254,222,0)" stroke="rgb(254,222,0)" stroke-width="1" opacity="1" d="M 333.5 405 L 332.5 407 L 330.5 408 L 331.5 406 L 333.5 405 Z " /><path fill="rgb(254,222,0)" stroke="rgb(254,222,0)" stroke-width="1" opacity="1" d="M 175.5 406 L 178 409.5 L 176 408.5 L 175.5 406 Z " /><path fill="rgb(254,222,0)" stroke="rgb(254,222,0)" stroke-width="1" opacity="1" d="M 348.5 406 L 350.5 409 L 348.5 406 Z " /><path fill="rgb(254,222,0)" stroke="rgb(254,222,0)" stroke-width="1" opacity="1" d="M 423.5 406 L 424 409.5 L 423 409.5 L 423.5 406 Z " /><path fill="rgb(254,222,0)" stroke="rgb(254,222,0)" stroke-width="1" opacity="1" d="M 167.5 407 L 166.5 409 L 167.5 407 Z " /><path fill="rgb(254,222,0)" stroke="rgb(254,222,0)" stroke-width="1" opacity="1" d="M 229.5 408 L 230 410.5 L 229 410.5 L 229.5 408 Z " /><path fill="rgb(254,222,0)" stroke="rgb(254,222,0)" stroke-width="1" opacity="1" d="M 278.5 408 L 279 412.5 L 278 412.5 L 278.5 408 Z " /><path fill="rgb(254,222,0)" stroke="rgb(254,222,0)" stroke-width="1" opacity="1" d="M 328.5 408 L 327.5 410 L 325.5 411 L 326.5 409 L 328.5 408 Z " /><path fill="rgb(254,222,0)" stroke="rgb(254,222,0)" stroke-width="1" opacity="1" d="M 164.5 409 L 163.5 411 L 161.5 412 L 162.5 410 L 164.5 409 Z " /><path fill="rgb(254,222,0)" stroke="rgb(254,222,0)" stroke-width="1" opacity="1" d="M 351.5 410 L 359.5 419 L 351.5 410 Z " /><path fill="rgb(254,222,0)" stroke="rgb(254,222,0)" stroke-width="1" opacity="1" d="M 178.5 411 L 179.5 413 L 178.5 411 Z " /><path fill="rgb(254,222,0)" stroke="rgb(254,222,0)" stroke-width="1" opacity="1" d="M 159.5 412 L 158.5 414 L 156.5 415 L 157.5 413 L 159.5 412 Z " /><path fill="rgb(254,222,0)" stroke="rgb(254,222,0)" stroke-width="1" opacity="1" d="M 321.5 412 L 320.5 414 L 318.5 415 L 319.5 413 L 321.5 412 Z " /><path fill="rgb(254,222,0)" stroke="rgb(254,222,0)" stroke-width="1" opacity="1" d="M 180.5 414 L 189 423.5 L 182 417.5 L 180.5 414 Z " /><path fill="rgb(254,222,0)" stroke="rgb(254,222,0)" stroke-width="1" opacity="1" d="M 154.5 415 L 153.5 417 L 151.5 418 L 152.5 416 L 154.5 415 Z " /><path fill="rgb(254,222,0)" stroke="rgb(254,222,0)" stroke-width="1" opacity="1" d="M 316.5 415 L 315.5 417 L 313.5 418 L 314.5 416 L 316.5 415 Z " /><path fill="rgb(254,222,0)" stroke="rgb(254,222,0)" stroke-width="1" opacity="1" d="M 471.5 415 L 472 418.5 L 471 418.5 L 471.5 415 Z " /><path fill="rgb(254,222,0)" stroke="rgb(254,222,0)" stroke-width="1" opacity="1" d="M 420.5 416 L 419.5 418 L 420.5 416 Z " /><path fill="rgb(254,222,0)" stroke="rgb(254,222,0)" stroke-width="1" opacity="1" d="M 277.5 417 L 278 419.5 L 277 419.5 L 277.5 417 Z " /><path fill="rgb(254,222,0)" stroke="rgb(254,222,0)" stroke-width="1" opacity="1" d="M 149.5 418 L 148.5 420 L 146.5 421 L 147.5 419 L 149.5 418 Z " /><path fill="rgb(254,222,0)" stroke="rgb(254,222,0)" stroke-width="1" opacity="1" d="M 309.5 419 L 308.5 421 L 306.5 422 L 307.5 420 L 309.5 419 Z " /><path fill="rgb(254,222,0)" stroke="rgb(254,222,0)" stroke-width="1" opacity="1" d="M 361.5 419 L 362.5 421 L 361.5 419 Z " /><path fill="rgb(254,222,0)" stroke="rgb(254,222,0)" stroke-width="1" opacity="1" d="M 418.5 419 L 417.5 421 L 418.5 419 Z " /><path fill="rgb(254,222,0)" stroke="rgb(254,222,0)" stroke-width="1" opacity="1" d="M 225.5 420 L 221.5 425 L 225.5 420 Z " /><path fill="rgb(254,222,0)" stroke="rgb(254,222,0)" stroke-width="1" opacity="1" d="M 144.5 421 L 143.5 423 L 141.5 424 L 142.5 422 L 144.5 421 Z " /><path fill="rgb(254,222,0)" stroke="rgb(254,222,0)" stroke-width="1" opacity="1" d="M 364.5 421 L 365.5 423 L 364.5 421 Z " /><path fill="rgb(254,222,0)" stroke="rgb(254,222,0)" stroke-width="1" opacity="1" d="M 415.5 421 L 413.5 424 L 415.5 421 Z " /><path fill="rgb(254,222,0)" stroke="rgb(254,222,0)" stroke-width="1" opacity="1" d="M 139.5 424 L 138.5 426 L 139.5 424 Z " /><path fill="rgb(254,222,0)" stroke="rgb(254,222,0)" stroke-width="1" opacity="1" d="M 190.5 424 L 195 426.5 L 193.5 427 L 190.5 424 Z " /><path fill="rgb(254,222,0)" stroke="rgb(254,222,0)" stroke-width="1" opacity="1" d="M 134.5 427 L 138 433.5 L 136 432.5 L 134.5 427 Z " /><path fill="rgb(254,222,0)" stroke="rgb(254,222,0)" stroke-width="1" opacity="1" d="M 377.5 427 L 380 427.5 L 377.5 428 L 377.5 427 Z " /><path fill="rgb(254,222,0)" stroke="rgb(254,222,0)" stroke-width="1" opacity="1" d="M 402.5 427 L 405 427.5 L 402.5 428 L 402.5 427 Z " /><path fill="rgb(254,222,0)" stroke="rgb(254,222,0)" stroke-width="1" opacity="1" d="M 200.5 428 L 211 428.5 L 200.5 429 L 200.5 428 Z " /><path fill="rgb(254,222,0)" stroke="rgb(254,222,0)" stroke-width="1" opacity="1" d="M 307.5 428 L 308.5 430 L 307.5 428 Z " /><path fill="rgb(254,222,0)" stroke="rgb(254,222,0)" stroke-width="1" opacity="1" d="M 382.5 428 L 387 428.5 L 382.5 429 L 382.5 428 Z " /><path fill="rgb(254,222,0)" stroke="rgb(254,222,0)" stroke-width="1" opacity="1" d="M 396.5 428 L 400 428.5 L 396.5 429 L 396.5 428 Z " /><path fill="rgb(254,222,0)" stroke="rgb(254,222,0)" stroke-width="1" opacity="1" d="M 309.5 431 L 319 442.5 L 313 437.5 L 309.5 431 Z " /><path fill="rgb(254,222,0)" stroke="rgb(254,222,0)" stroke-width="1" opacity="1" d="M 273.5 432 L 274 433.5 L 272.5 436 L 272 434.5 L 273.5 432 Z " /><path fill="rgb(254,222,0)" stroke="rgb(254,222,0)" stroke-width="1" opacity="1" d="M 139.5 437 L 140.5 439 L 139.5 437 Z " /><path fill="rgb(254,222,0)" stroke="rgb(254,222,0)" stroke-width="1" opacity="1" d="M 463.5 439 L 462.5 441 L 463.5 439 Z " /><path fill="rgb(254,222,0)" stroke="rgb(254,222,0)" stroke-width="1" opacity="1" d="M 141.5 440 L 143.5 443 L 141.5 440 Z " /><path fill="rgb(254,222,0)" stroke="rgb(254,222,0)" stroke-width="1" opacity="1" d="M 269.5 441 L 268.5 443 L 269.5 441 Z " /><path fill="rgb(254,222,0)" stroke="rgb(254,222,0)" stroke-width="1" opacity="1" d="M 461.5 442 L 460.5 444 L 461.5 442 Z " /><path fill="rgb(254,222,0)" stroke="rgb(254,222,0)" stroke-width="1" opacity="1" d="M 144.5 444 L 156.5 457 L 144.5 444 Z " /><path fill="rgb(254,222,0)" stroke="rgb(254,222,0)" stroke-width="1" opacity="1" d="M 267.5 444 L 266.5 446 L 267.5 444 Z " /><path fill="rgb(254,222,0)" stroke="rgb(254,222,0)" stroke-width="1" opacity="1" d="M 459.5 445 L 450.5 455 L 459.5 445 Z " /><path fill="rgb(254,222,0)" stroke="rgb(254,222,0)" stroke-width="1" opacity="1" d="M 265.5 447 L 262.5 451 L 265.5 447 Z " /><path fill="rgb(254,222,0)" stroke="rgb(254,222,0)" stroke-width="1" opacity="1" d="M 323.5 447 L 332 454.5 L 329.5 453 L 323.5 447 Z " /><path fill="rgb(254,222,0)" stroke="rgb(254,222,0)" stroke-width="1" opacity="1" d="M 261.5 452 L 259.5 455 L 261.5 452 Z " /><path fill="rgb(254,222,0)" stroke="rgb(254,222,0)" stroke-width="1" opacity="1" d="M 257.5 455 L 253.5 460 L 248.5 463 L 249.5 461 L 257.5 455 Z " /><path fill="rgb(254,222,0)" stroke="rgb(254,222,0)" stroke-width="1" opacity="1" d="M 333.5 455 L 334.5 457 L 333.5 455 Z " /><path fill="rgb(254,222,0)" stroke="rgb(254,222,0)" stroke-width="1" opacity="1" d="M 448.5 455 L 446.5 458 L 448.5 455 Z " /><path fill="rgb(254,222,0)" stroke="rgb(254,222,0)" stroke-width="1" opacity="1" d="M 158.5 457 L 159.5 459 L 158.5 457 Z " /><path fill="rgb(254,222,0)" stroke="rgb(254,222,0)" stroke-width="1" opacity="1" d="M 336.5 457 L 337.5 459 L 336.5 457 Z " /><path fill="rgb(254,222,0)" stroke="rgb(254,222,0)" stroke-width="1" opacity="1" d="M 444.5 458 L 443.5 460 L 444.5 458 Z " /><path fill="rgb(254,222,0)" stroke="rgb(254,222,0)" stroke-width="1" opacity="1" d="M 161.5 459 L 162.5 461 L 161.5 459 Z " /><path fill="rgb(254,222,0)" stroke="rgb(254,222,0)" stroke-width="1" opacity="1" d="M 164.5 461 L 171 464.5 L 169.5 465 Q 164.9 463.8 164.5 461 Z " /><path fill="rgb(254,222,0)" stroke="rgb(254,222,0)" stroke-width="1" opacity="1" d="M 241.5 465 L 243 465.5 L 239.5 467 L 239.5 466 L 241.5 465 Z " /><path fill="rgb(254,222,0)" stroke="rgb(254,222,0)" stroke-width="1" opacity="1" d="M 183.5 469 L 186 469.5 L 183.5 470 L 183.5 469 Z " /><path fill="rgb(254,222,0)" stroke="rgb(254,222,0)" stroke-width="1" opacity="1" d="M 365.5 469 L 368 469.5 L 365.5 470 L 365.5 469 Z " /><path fill="rgb(254,222,0)" stroke="rgb(254,222,0)" stroke-width="1" opacity="1" d="M 188.5 470 L 191 470.5 L 188.5 471 L 188.5 470 Z " /><path fill="rgb(254,222,0)" stroke="rgb(254,222,0)" stroke-width="1" opacity="1" d="M 224.5 470 L 227 470.5 L 224.5 471 L 224.5 470 Z " /><path fill="rgb(254,222,0)" stroke="rgb(254,222,0)" stroke-width="1" opacity="1" d="M 370.5 470 L 374 470.5 L 370.5 471 L 370.5 470 Z " /><path fill="rgb(254,222,0)" stroke="rgb(254,222,0)" stroke-width="1" opacity="1" d="M 411.5 470 L 414 470.5 L 411.5 471 L 411.5 470 Z " /><path fill="rgb(254,222,0)" stroke="rgb(254,222,0)" stroke-width="1" opacity="1" d="M 194.5 471 L 199 471.5 L 194.5 472 L 194.5 471 Z " /><path fill="rgb(254,222,0)" stroke="rgb(254,222,0)" stroke-width="1" opacity="1" d="M 215.5 471 L 220 471.5 L 215.5 472 L 215.5 471 Z " /><path fill="rgb(254,222,0)" stroke="rgb(254,222,0)" stroke-width="1" opacity="1" d="M 377.5 471 L 382 471.5 L 377.5 472 L 377.5 471 Z " /><path fill="rgb(254,222,0)" stroke="rgb(254,222,0)" stroke-width="1" opacity="1" d="M 402.5 471 L 407 471.5 L 402.5 472 L 402.5 471 Z " /><path fill="rgb(255,223,0)" stroke="rgb(255,223,0)" stroke-width="1" opacity="1" d="M 0 0 L 512 0 L 512 512 L 0 512 L 0 0 Z M 379 232 L 359 237 Q 346 242 338 250 Q 323 263 319 286 L 319 308 L 321 318 Q 325 332 334 342 Q 344 352 358 360 L 399 378 L 416 388 L 421 395 L 424 405 L 423 412 L 419 419 L 409 426 L 396 429 Q 373 429 361 419 Q 351 411 345 400 L 339 402 L 304 423 L 313 438 Q 323 451 338 459 L 362 469 L 378 472 Q 426 476 451 455 L 464 440 L 470 427 L 473 411 L 473 399 L 470 382 Q 467 370 460 363 Q 449 349 433 340 L 378 314 Q 369 309 367 299 Q 366 289 370 285 Q 375 277 385 275 Q 403 273 411 282 L 421 295 L 423 295 L 459 271 L 451 259 Q 440 244 423 237 L 402 232 L 379 232 Z M 230 235 L 230 408 L 226 420 Q 222 426 214 428 Q 197 430 190 424 Q 180 416 175 404 L 173 404 L 134 427 L 144 445 Q 153 456 166 463 L 184 470 L 195 472 Q 239 475 260 455 Q 269 446 274 434 L 279 413 L 279 236 L 279 235 L 230 235 Z " /></svg>