<svg width="512" height="512" version="1.1" xmlns="http://www.w3.org/2000/svg" desc="Created with imagetracer.js version 1.2.6" ><path fill="rgb(4,10,17)" stroke="rgb(4,10,17)" stroke-width="1" opacity="0.043137254901960784" d="M 0 0 L 40 0.5 Q 20.2 4.7 10 18.5 Q 2.8 26.8 0.5 40 L 0 0 Z " /><path fill="rgb(4,10,17)" stroke="rgb(4,10,17)" stroke-width="1" opacity="0.043137254901960784" d="M 472.5 0 L 512 0 L 512 39.5 L 511 39.5 Q 507.3 19.7 493.5 10 Q 485.8 2.7 472.5 1 L 472.5 0 Z " /><path fill="rgb(4,10,17)" stroke="rgb(4,10,17)" stroke-width="1" opacity="0.043137254901960784" d="M 0.5 472 Q 4.7 491.8 18.5 502 Q 26.8 509.2 40 511.5 L 0 512 L 0.5 472 Z " /><path fill="rgb(4,10,17)" stroke="rgb(4,10,17)" stroke-width="1" opacity="0.043137254901960784" d="M 511.5 472 L 512 512 L 472 511.5 Q 491.8 507.3 502 493.5 Q 509.2 485.2 511.5 472 Z " /><path fill="rgb(49,120,198)" stroke="rgb(49,120,198)" stroke-width="1" opacity="0.996078431372549" d="M 40.5 0 L 49 0.5 Q 21.5 2.5 10 20.5 Q 1.1 30.6 0.5 49 L 0 40.5 Q 4.6 20.6 18.5 10 Q 27.3 2.8 40.5 0 Z " /><path fill="rgb(49,120,198)" stroke="rgb(49,120,198)" stroke-width="1" opacity="0.996078431372549" d="M 463.5 0 L 471.5 0 L 481.5 3 Q 494.1 8.4 502 18.5 Q 511.5 29 512 48.5 L 511 48.5 L 511 40.5 L 506 26.5 L 491.5 10 L 481.5 4 L 471.5 1 L 463.5 1 L 463.5 0 Z " /><path fill="rgb(49,120,198)" stroke="rgb(49,120,198)" stroke-width="1" opacity="0.996078431372549" d="M 0.5 463 Q 2.5 490.5 20.5 502 Q 30.6 510.9 49 511.5 L 40.5 512 Q 20.6 507.4 10 493.5 L 1 475.5 L 0.5 463 Z " /><path fill="rgb(49,120,198)" stroke="rgb(49,120,198)" stroke-width="1" opacity="0.996078431372549" d="M 511.5 463 L 512 471.5 Q 507.4 491.4 493.5 502 Q 483 511.5 463.5 512 L 463.5 511 L 471.5 511 L 485.5 506 L 502 491.5 Q 510.9 481.4 511.5 463 Z " /><path fill="rgb(49,120,198)" stroke="rgb(49,120,198)" stroke-width="1" opacity="1" d="M 49.5 0 L 462.5 0 L 463.5 1 L 475.5 2 L 485.5 6 L 502 20.5 L 508 30.5 L 511 40.5 L 511 48.5 L 512 49.5 L 512 462.5 L 511 463.5 L 510 475.5 L 506 485.5 L 491.5 502 L 481.5 508 L 471.5 511 L 463.5 511 L 462.5 512 L 49.5 512 L 48.5 511 L 36.5 510 L 26.5 506 L 10 491.5 L 4 481.5 L 1 471.5 L 1 463.5 L 0 462.5 L 0 49.5 L 1 48.5 L 2 36.5 L 6 26.5 L 20.5 10 L 30.5 4 L 40.5 1 L 48.5 1 L 49.5 0 Z M 392 238 L 391 239 L 383 239 L 372 241 L 359 245 L 339 256 Q 328 264 322 276 L 318 286 L 316 296 Q 314 328 329 344 Q 339 355 354 363 L 387 377 L 406 388 Q 414 394 417 406 Q 417 413 414 418 L 408 424 L 399 428 L 390 430 L 369 430 L 354 427 Q 332 421 318 408 L 317 458 L 340 466 L 357 469 L 366 469 L 367 470 L 396 470 L 397 469 L 405 469 L 416 467 Q 435 463 449 452 L 462 437 L 467 426 L 470 412 Q 472 379 457 364 Q 448 353 436 346 L 382 320 Q 372 315 369 303 Q 369 295 372 291 L 381 283 L 397 278 L 418 278 L 434 281 Q 449 285 460 293 L 460 246 L 443 241 L 432 240 L 431 239 L 423 239 L 422 238 L 392 238 Z M 118 243 L 118 284 L 182 284 L 182 285 L 182 467 L 233 467 L 233 467 L 233 284 L 297 284 L 297 244 L 297 243 L 118 243 Z " /><path fill="rgb(212,227,243)" stroke="rgb(212,227,243)" stroke-width="1" opacity="1" d="M 391.5 238 L 400 238.5 L 391.5 239 L 391.5 238 Z " /><path fill="rgb(212,227,243)" stroke="rgb(212,227,243)" stroke-width="1" opacity="1" d="M 411.5 238 L 422 238.5 L 411.5 239 L 411.5 238 Z " /><path fill="rgb(212,227,243)" stroke="rgb(212,227,243)" stroke-width="1" opacity="1" d="M 382.5 239 L 386 239.5 L 382.5 240 L 382.5 239 Z " /><path fill="rgb(212,227,243)" stroke="rgb(212,227,243)" stroke-width="1" opacity="1" d="M 427.5 239 L 431 239.5 L 427.5 240 L 427.5 239 Z " /><path fill="rgb(212,227,243)" stroke="rgb(212,227,243)" stroke-width="1" opacity="1" d="M 376.5 240 L 379 240.5 L 376.5 241 L 376.5 240 Z " /><path fill="rgb(212,227,243)" stroke="rgb(212,227,243)" stroke-width="1" opacity="1" d="M 435.5 240 L 438 240.5 L 435.5 241 L 435.5 240 Z " /><path fill="rgb(212,227,243)" stroke="rgb(212,227,243)" stroke-width="1" opacity="1" d="M 371.5 241 L 374 241.5 L 371.5 242 L 371.5 241 Z " /><path fill="rgb(212,227,243)" stroke="rgb(212,227,243)" stroke-width="1" opacity="1" d="M 347.5 250 L 346.5 252 L 347.5 250 Z " /><path fill="rgb(212,227,243)" stroke="rgb(212,227,243)" stroke-width="1" opacity="1" d="M 338.5 256 L 335.5 260 L 338.5 256 Z " /><path fill="rgb(212,227,243)" stroke="rgb(212,227,243)" stroke-width="1" opacity="1" d="M 330.5 264 L 328.5 267 L 330.5 264 Z " /><path fill="rgb(212,227,243)" stroke="rgb(212,227,243)" stroke-width="1" opacity="1" d="M 326.5 269 L 325.5 271 L 326.5 269 Z " /><path fill="rgb(212,227,243)" stroke="rgb(212,227,243)" stroke-width="1" opacity="1" d="M 323.5 274 L 322.5 276 L 323.5 274 Z " /><path fill="rgb(212,227,243)" stroke="rgb(212,227,243)" stroke-width="1" opacity="1" d="M 402.5 277 L 412 277.5 L 402.5 278 L 402.5 277 Z " /><path fill="rgb(212,227,243)" stroke="rgb(212,227,243)" stroke-width="1" opacity="1" d="M 393.5 278 L 396 278.5 L 393.5 279 L 393.5 278 Z " /><path fill="rgb(212,227,243)" stroke="rgb(212,227,243)" stroke-width="1" opacity="1" d="M 418.5 278 L 422 278.5 L 418.5 279 L 418.5 278 Z " /><path fill="rgb(212,227,243)" stroke="rgb(212,227,243)" stroke-width="1" opacity="1" d="M 429.5 280 L 432 280.5 L 429.5 281 L 429.5 280 Z " /><path fill="rgb(212,227,243)" stroke="rgb(212,227,243)" stroke-width="1" opacity="1" d="M 379.5 283 L 378.5 285 L 379.5 283 Z " /><path fill="rgb(212,227,243)" stroke="rgb(212,227,243)" stroke-width="1" opacity="1" d="M 232.5 284 L 233 466.5 L 232 466.5 L 232.5 284 Z " /><path fill="rgb(212,227,243)" stroke="rgb(212,227,243)" stroke-width="1" opacity="1" d="M 376.5 285 L 373.5 289 L 376.5 285 Z " /><path fill="rgb(212,227,243)" stroke="rgb(212,227,243)" stroke-width="1" opacity="1" d="M 317.5 289 L 318 291.5 L 317 291.5 L 317.5 289 Z " /><path fill="rgb(212,227,243)" stroke="rgb(212,227,243)" stroke-width="1" opacity="1" d="M 454.5 289 L 455.5 291 L 454.5 289 Z " /><path fill="rgb(212,227,243)" stroke="rgb(212,227,243)" stroke-width="1" opacity="1" d="M 316.5 295 L 317 300.5 L 316 300.5 L 316.5 295 Z " /><path fill="rgb(212,227,243)" stroke="rgb(212,227,243)" stroke-width="1" opacity="1" d="M 369.5 295 L 370 297.5 L 369 297.5 L 369.5 295 Z " /><path fill="rgb(212,227,243)" stroke="rgb(212,227,243)" stroke-width="1" opacity="1" d="M 316.5 308 L 317 313.5 L 316 313.5 L 316.5 308 Z " /><path fill="rgb(212,227,243)" stroke="rgb(212,227,243)" stroke-width="1" opacity="1" d="M 372.5 311 L 379.5 319 L 372.5 311 Z " /><path fill="rgb(212,227,243)" stroke="rgb(212,227,243)" stroke-width="1" opacity="1" d="M 384.5 321 L 385.5 323 L 384.5 321 Z " /><path fill="rgb(212,227,243)" stroke="rgb(212,227,243)" stroke-width="1" opacity="1" d="M 324.5 336 L 325.5 338 L 324.5 336 Z " /><path fill="rgb(212,227,243)" stroke="rgb(212,227,243)" stroke-width="1" opacity="1" d="M 326.5 339 L 327.5 341 L 326.5 339 Z " /><path fill="rgb(212,227,243)" stroke="rgb(212,227,243)" stroke-width="1" opacity="1" d="M 329.5 343 L 337.5 352 L 329.5 343 Z " /><path fill="rgb(212,227,243)" stroke="rgb(212,227,243)" stroke-width="1" opacity="1" d="M 435.5 346 L 436.5 348 L 435.5 346 Z " /><path fill="rgb(212,227,243)" stroke="rgb(212,227,243)" stroke-width="1" opacity="1" d="M 441.5 350 L 442.5 352 L 441.5 350 Z " /><path fill="rgb(212,227,243)" stroke="rgb(212,227,243)" stroke-width="1" opacity="1" d="M 444.5 352 L 446.5 355 L 444.5 352 Z " /><path fill="rgb(212,227,243)" stroke="rgb(212,227,243)" stroke-width="1" opacity="1" d="M 340.5 353 L 342.5 356 L 340.5 353 Z " /><path fill="rgb(212,227,243)" stroke="rgb(212,227,243)" stroke-width="1" opacity="1" d="M 344.5 356 L 345.5 358 L 344.5 356 Z " /><path fill="rgb(212,227,243)" stroke="rgb(212,227,243)" stroke-width="1" opacity="1" d="M 449.5 356 L 456.5 364 L 449.5 356 Z " /><path fill="rgb(212,227,243)" stroke="rgb(212,227,243)" stroke-width="1" opacity="1" d="M 347.5 358 L 348.5 360 L 347.5 358 Z " /><path fill="rgb(212,227,243)" stroke="rgb(212,227,243)" stroke-width="1" opacity="1" d="M 352.5 361 L 353.5 363 L 352.5 361 Z " /><path fill="rgb(212,227,243)" stroke="rgb(212,227,243)" stroke-width="1" opacity="1" d="M 458.5 366 L 459.5 368 L 458.5 366 Z " /><path fill="rgb(212,227,243)" stroke="rgb(212,227,243)" stroke-width="1" opacity="1" d="M 460.5 369 L 461.5 371 L 460.5 369 Z " /><path fill="rgb(212,227,243)" stroke="rgb(212,227,243)" stroke-width="1" opacity="1" d="M 395.5 381 L 396.5 383 L 395.5 381 Z " /><path fill="rgb(212,227,243)" stroke="rgb(212,227,243)" stroke-width="1" opacity="1" d="M 400.5 384 L 401.5 386 L 400.5 384 Z " /><path fill="rgb(212,227,243)" stroke="rgb(212,227,243)" stroke-width="1" opacity="1" d="M 403.5 386 L 404.5 388 L 403.5 386 Z " /><path fill="rgb(212,227,243)" stroke="rgb(212,227,243)" stroke-width="1" opacity="1" d="M 468.5 388 L 469 390.5 L 468 390.5 L 468.5 388 Z " /><path fill="rgb(212,227,243)" stroke="rgb(212,227,243)" stroke-width="1" opacity="1" d="M 407.5 389 L 411.5 394 L 407.5 389 Z " /><path fill="rgb(212,227,243)" stroke="rgb(212,227,243)" stroke-width="1" opacity="1" d="M 469.5 394 L 470 400.5 L 469 400.5 L 469.5 394 Z " /><path fill="rgb(212,227,243)" stroke="rgb(212,227,243)" stroke-width="1" opacity="1" d="M 469.5 407 L 470 411.5 L 469 411.5 L 469.5 407 Z " /><path fill="rgb(212,227,243)" stroke="rgb(212,227,243)" stroke-width="1" opacity="1" d="M 319.5 409 L 320.5 411 L 319.5 409 Z " /><path fill="rgb(212,227,243)" stroke="rgb(212,227,243)" stroke-width="1" opacity="1" d="M 323.5 412 L 324.5 414 L 323.5 412 Z " /><path fill="rgb(212,227,243)" stroke="rgb(212,227,243)" stroke-width="1" opacity="1" d="M 326.5 414 L 327.5 416 L 326.5 414 Z " /><path fill="rgb(212,227,243)" stroke="rgb(212,227,243)" stroke-width="1" opacity="1" d="M 412.5 419 L 409.5 423 L 412.5 419 Z " /><path fill="rgb(212,227,243)" stroke="rgb(212,227,243)" stroke-width="1" opacity="1" d="M 364.5 429 L 368 429.5 L 364.5 430 L 364.5 429 Z " /><path fill="rgb(212,227,243)" stroke="rgb(212,227,243)" stroke-width="1" opacity="1" d="M 390.5 429 L 393 429.5 L 390.5 430 L 390.5 429 Z " /><path fill="rgb(212,227,243)" stroke="rgb(212,227,243)" stroke-width="1" opacity="1" d="M 374.5 430 L 384 430.5 L 374.5 431 L 374.5 430 Z " /><path fill="rgb(212,227,243)" stroke="rgb(212,227,243)" stroke-width="1" opacity="1" d="M 461.5 436 L 460.5 438 L 461.5 436 Z " /><path fill="rgb(212,227,243)" stroke="rgb(212,227,243)" stroke-width="1" opacity="1" d="M 459.5 439 L 458.5 441 L 459.5 439 Z " /><path fill="rgb(212,227,243)" stroke="rgb(212,227,243)" stroke-width="1" opacity="1" d="M 457.5 442 L 448.5 452 L 457.5 442 Z " /><path fill="rgb(212,227,243)" stroke="rgb(212,227,243)" stroke-width="1" opacity="1" d="M 445.5 453 L 444.5 455 L 445.5 453 Z " /><path fill="rgb(212,227,243)" stroke="rgb(212,227,243)" stroke-width="1" opacity="1" d="M 442.5 455 L 441.5 457 L 442.5 455 Z " /><path fill="rgb(212,227,243)" stroke="rgb(212,227,243)" stroke-width="1" opacity="1" d="M 349.5 467 L 352 467.5 L 349.5 468 L 349.5 467 Z " /><path fill="rgb(212,227,243)" stroke="rgb(212,227,243)" stroke-width="1" opacity="1" d="M 356.5 468 L 360 468.5 L 356.5 469 L 356.5 468 Z " /><path fill="rgb(212,227,243)" stroke="rgb(212,227,243)" stroke-width="1" opacity="1" d="M 401.5 468 L 405 468.5 L 401.5 469 L 401.5 468 Z " /><path fill="rgb(212,227,243)" stroke="rgb(212,227,243)" stroke-width="1" opacity="1" d="M 366.5 469 L 376 469.5 L 366.5 470 L 366.5 469 Z " /><path fill="rgb(212,227,243)" stroke="rgb(212,227,243)" stroke-width="1" opacity="1" d="M 386.5 469 L 396 469.5 L 386.5 470 L 386.5 469 Z " /><path fill="rgb(255,255,255)" stroke="rgb(255,255,255)" stroke-width="1" opacity="1" d="M 400.5 238 L 434.5 240 L 452.5 244 L 460 247.5 L 460 291.5 L 458.5 292 L 448.5 286 L 431.5 280 L 421.5 278 L 402.5 277 L 401.5 278 L 393.5 278 L 383.5 281 L 373 288.5 L 369 295.5 L 369 304.5 Q 371.8 314.3 379.5 319 L 403.5 332 L 434.5 346 Q 448.2 353.8 458 365.5 Q 464.8 374.2 468 386.5 L 470 406.5 L 467 423.5 L 462 435.5 L 446.5 453 Q 433.1 463.1 413.5 467 L 401.5 468 L 400.5 469 L 376.5 470 L 375.5 469 L 360.5 469 L 359.5 468 L 341.5 466 L 327.5 462 L 317 456.5 L 317.5 408 Q 339.8 430.2 383.5 431 L 384.5 430 L 392.5 430 L 402.5 427 L 413 419.5 Q 418.3 414.8 417 403.5 Q 414.2 394.3 407.5 389 L 385.5 376 L 354.5 363 Q 338.9 354.7 328 341.5 L 319 324.5 L 317 316.5 L 316 301.5 L 317 300.5 L 318 287.5 L 321 278.5 Q 326.3 267.8 334.5 260 Q 344.9 250.4 359.5 245 L 379.5 240 L 399.5 239 L 400.5 238 Z " /><path fill="rgb(255,255,255)" stroke="rgb(255,255,255)" stroke-width="1" opacity="1" d="M 118 243 L 296.5 243 L 297 243.5 L 297 284 L 232 284 L 232 466.5 L 231.5 467 L 182 467 L 182 284.5 L 181.5 284 L 118 284 L 118 243 Z " /></svg>